<svg width="21" height="21" viewBox="0 0 21 21" fill="none" xmlns="http://www.w3.org/2000/svg">
<circle cx="10.15" cy="10.15" r="10.15" fill="#9069AE"/>
<g clip-path="url(#clip0_82:2787)">
<path d="M9.86308 6.35775C9.9352 6.30005 9.97847 6.30005 10.2093 6.30005C10.3247 6.30005 10.4978 6.31448 10.5987 6.32891C11.0748 6.38661 11.3777 6.45873 11.796 6.66067C12.2143 6.86263 12.474 7.05013 12.8346 7.38192C13.1664 7.69927 13.3395 7.94449 13.5414 8.33396C13.8155 8.86767 13.9597 9.48795 13.9886 10.1803C14.003 10.4111 13.9886 10.4688 13.9309 10.541C13.8299 10.6708 13.5991 10.6564 13.5126 10.4977C13.4837 10.4544 13.4837 10.4111 13.4693 10.2236C13.4549 9.93513 13.4404 9.7476 13.3972 9.51681C13.2385 8.63689 12.8058 7.93008 12.1134 7.4252C11.5364 7.00688 11.0315 6.84821 10.2526 6.79051C9.97849 6.79051 9.9352 6.79051 9.8775 6.73281C9.76211 6.66067 9.76211 6.45872 9.86308 6.35775Z" fill="white"/>
<path d="M11.2907 8.16078C11.0166 8.00212 10.5983 7.87229 10.2233 7.84343C10.0934 7.829 10.0069 7.80016 9.9636 7.74246C9.87704 7.67033 9.87704 7.54051 9.93474 7.45397C10.0069 7.33857 10.1223 7.32414 10.454 7.38184C11.2907 7.49724 11.9398 7.88672 12.3725 8.50698C12.6178 8.85317 12.762 9.27149 12.8053 9.70424C12.8197 9.86291 12.8197 10.1514 12.8053 10.2091C12.7909 10.2524 12.7332 10.3245 12.6755 10.3389C12.6178 10.3678 12.5024 10.3678 12.4447 10.3245C12.3437 10.2668 12.3004 10.1947 12.3004 9.96389C12.3004 9.6177 12.2139 9.24265 12.0408 8.95415C11.8677 8.62237 11.608 8.34831 11.2907 8.16078Z" fill="white"/>
<path d="M11.6509 10.065C11.5643 10.1371 11.4201 10.1371 11.3335 10.065C11.2614 10.0217 11.247 9.96403 11.2326 9.81977C11.2182 9.63225 11.1749 9.50242 11.1316 9.38702C11.0162 9.12737 10.7998 8.99756 10.4392 8.95427C10.2661 8.93984 10.2229 8.911 10.1652 8.8533C10.0642 8.73791 10.1075 8.55038 10.2373 8.47825C10.295 8.44939 10.3094 8.44939 10.4248 8.46382C10.4969 8.46382 10.5979 8.47825 10.6556 8.49268C10.9297 8.55038 11.1316 8.65135 11.3192 8.81003C11.5499 9.0264 11.6798 9.27162 11.723 9.64668C11.7519 9.8919 11.7374 9.99287 11.6509 10.065Z" fill="white"/>
<path d="M13.9734 13.1375C13.9734 13.0077 13.9301 12.9067 13.8435 12.8058C13.757 12.7048 13.1656 12.2288 12.8771 12.0413C12.6607 11.897 12.3289 11.6951 12.1847 11.6229C11.9827 11.522 11.7808 11.5075 11.5933 11.5652C11.55 11.5797 11.5211 11.5941 11.4923 11.6085C11.4057 11.6518 11.3336 11.7383 11.1605 11.9403C11.0451 12.0845 10.9442 12.2143 10.9297 12.2143C10.9297 12.2143 10.9153 12.2143 10.9153 12.2288C10.9009 12.2432 10.8576 12.2576 10.8288 12.272C10.6412 12.3586 10.396 12.3009 9.99212 12.1134C9.67477 11.9547 9.4007 11.7672 9.08335 11.4787C8.80928 11.2334 8.5352 10.9305 8.39096 10.6853C8.18901 10.3679 8.04477 9.96406 8.04477 9.73326C8.04477 9.63229 8.08804 9.50247 8.13133 9.43034L8.14575 9.41591C8.14575 9.41591 8.14575 9.41591 8.16018 9.40148C8.17461 9.38705 8.18904 9.37262 8.20345 9.37262C8.26115 9.32935 8.33328 9.25722 8.40541 9.19953C8.73717 8.93987 8.8093 8.85333 8.85259 8.70908C8.89586 8.56482 8.85259 8.37731 8.70833 8.11766C8.44864 7.64166 7.72742 6.73289 7.46776 6.55979C7.42449 6.53093 7.35237 6.50209 7.3091 6.47323C7.1937 6.44437 7.03503 6.42996 6.94847 6.44437C6.81865 6.47323 6.65998 6.5742 6.29936 6.83384C6.08299 6.99251 5.79448 7.26659 5.72237 7.38199C5.5637 7.65605 5.57811 7.87243 5.76564 8.40615C5.93874 8.88217 6.16953 9.35819 6.42918 9.81978L6.44361 9.83421C6.50131 9.92077 6.55901 10.0217 6.61671 10.1083C6.61671 10.1227 6.63114 10.1227 6.63114 10.1371C6.68884 10.2237 6.74654 10.3247 6.80424 10.4112C6.83309 10.4401 6.84751 10.4833 6.87636 10.5122C6.91963 10.5843 6.96292 10.642 7.02062 10.7141C7.09275 10.8151 7.16487 10.9161 7.25141 11.017C8.07363 12.0845 9.02567 12.95 10.1508 13.6568C10.1652 13.6712 10.1797 13.6712 10.1941 13.6857C10.3672 13.7866 10.5403 13.8876 10.7134 13.9886C10.7422 14.003 10.7566 14.0174 10.7855 14.0319C10.9586 14.1328 11.1461 14.2194 11.3336 14.3059C11.3481 14.3203 11.3769 14.3203 11.3913 14.3348C11.5789 14.4213 11.7808 14.5079 11.9828 14.5944C12.228 14.6954 12.3145 14.7098 12.502 14.6954C12.5886 14.6954 12.6751 14.681 12.7473 14.6521C12.8627 14.6233 12.9636 14.5656 13.0935 14.479C13.1223 14.4646 13.1367 14.4502 13.1656 14.4358C13.1944 14.4213 13.2233 14.3925 13.2521 14.3636C13.4108 14.2338 13.5839 14.0319 13.7282 13.8443C13.8291 13.7145 13.9013 13.5847 13.9445 13.4837C13.9589 13.3395 13.9734 13.2385 13.9734 13.1375Z" fill="white"/>
</g>
<defs>
<clipPath id="clip0_82:2787">
<rect width="8.4" height="8.4" fill="white" transform="translate(5.60156 6.30005)"/>
</clipPath>
</defs>
</svg>
