<svg width="49" height="49" viewBox="0 0 49 49" fill="none" xmlns="http://www.w3.org/2000/svg">
<rect x="0.5" y="0.5" width="48" height="48" fill="#EFBFBF" stroke="#8B0304"/>
<mask id="mask0" style="mask-type:alpha" maskUnits="userSpaceOnUse" x="0" y="0" width="49" height="49">
<rect width="49" height="49" fill="#C4C4C4"/>
</mask>
<g mask="url(#mask0)">
<mask id="path-3-inside-1" fill="white">
<path fill-rule="evenodd" clip-rule="evenodd" d="M26.4729 -9.60999C26.8076 -6.99573 29.0089 -4.96523 31.6979 -4.89754V-0.736113H35.4434C35.4422 -0.690033 35.4416 -0.64381 35.4416 -0.597452C35.4416 2.38911 37.8627 4.8102 40.8493 4.81022V8.97018C37.9091 8.9702 35.517 11.3167 35.4434 14.2391H31.6979V17.2914C28.7754 17.3649 26.4289 19.7571 26.4289 22.6973C26.4289 22.9322 26.4438 23.1636 26.4729 23.3907H22.2251C22.2541 23.1636 22.2691 22.9322 22.2691 22.6973C22.2691 19.7107 19.848 17.2896 16.8614 17.2896C16.8151 17.2896 16.7689 17.2902 16.7228 17.2914V14.2391H13.2546C13.181 11.3166 10.7889 8.97018 7.84867 8.97018H7.84863V4.81022H7.84867C10.8352 4.81022 13.2563 2.38912 13.2563 -0.59745C13.2563 -0.64381 13.2558 -0.690033 13.2546 -0.736113H16.7228V-4.89754C16.7689 -4.89638 16.8151 -4.8958 16.8614 -4.8958C19.6131 -4.8958 21.8847 -6.95093 22.2251 -9.60999H26.4729Z"/>
</mask>
<path fill-rule="evenodd" clip-rule="evenodd" d="M26.4729 -9.60999C26.8076 -6.99573 29.0089 -4.96523 31.6979 -4.89754V-0.736113H35.4434C35.4422 -0.690033 35.4416 -0.64381 35.4416 -0.597452C35.4416 2.38911 37.8627 4.8102 40.8493 4.81022V8.97018C37.9091 8.9702 35.517 11.3167 35.4434 14.2391H31.6979V17.2914C28.7754 17.3649 26.4289 19.7571 26.4289 22.6973C26.4289 22.9322 26.4438 23.1636 26.4729 23.3907H22.2251C22.2541 23.1636 22.2691 22.9322 22.2691 22.6973C22.2691 19.7107 19.848 17.2896 16.8614 17.2896C16.8151 17.2896 16.7689 17.2902 16.7228 17.2914V14.2391H13.2546C13.181 11.3166 10.7889 8.97018 7.84867 8.97018H7.84863V4.81022H7.84867C10.8352 4.81022 13.2563 2.38912 13.2563 -0.59745C13.2563 -0.64381 13.2558 -0.690033 13.2546 -0.736113H16.7228V-4.89754C16.7689 -4.89638 16.8151 -4.8958 16.8614 -4.8958C19.6131 -4.8958 21.8847 -6.95093 22.2251 -9.60999H26.4729Z" fill="white"/>
<path d="M26.4729 -9.60999L27.4648 -9.73696L27.3531 -10.61H26.4729V-9.60999ZM31.6979 -4.89754H32.6979V-5.87269L31.723 -5.89723L31.6979 -4.89754ZM31.6979 -0.736113H30.6979V0.263887H31.6979V-0.736113ZM35.4434 -0.736113L36.4431 -0.710954L36.4689 -1.73611H35.4434V-0.736113ZM40.8493 4.81022H41.8493V3.81022L40.8493 3.81022L40.8493 4.81022ZM40.8493 8.97018L40.8493 9.97018L41.8493 9.97017V8.97018H40.8493ZM35.4434 14.2391V15.2391H36.4185L36.4431 14.2643L35.4434 14.2391ZM31.6979 14.2391V13.2391H30.6979V14.2391H31.6979ZM31.6979 17.2914L31.723 18.291L32.6979 18.2665V17.2914H31.6979ZM26.4729 23.3907V24.3907H27.609L27.4648 23.2637L26.4729 23.3907ZM22.2251 23.3907L21.2332 23.2637L21.0889 24.3907H22.2251V23.3907ZM16.7228 17.2914H15.7228V18.3168L16.7479 18.291L16.7228 17.2914ZM16.7228 14.2391H17.7228V13.2391H16.7228V14.2391ZM13.2546 14.2391L12.2549 14.2643L12.2795 15.2391H13.2546V14.2391ZM7.84863 8.97018H6.84863V9.97018H7.84863V8.97018ZM7.84863 4.81022V3.81022H6.84863V4.81022H7.84863ZM13.2546 -0.736113V-1.73611H12.2291L12.2549 -0.710954L13.2546 -0.736113ZM16.7228 -0.736113V0.263887H17.7228V-0.736113H16.7228ZM16.7228 -4.89754L16.7479 -5.89723L15.7228 -5.92303V-4.89754H16.7228ZM22.2251 -9.60999V-10.61H21.3449L21.2332 -9.73696L22.2251 -9.60999ZM25.481 -9.48301C25.8777 -6.38416 28.4852 -3.97809 31.6727 -3.89786L31.723 -5.89723C29.5326 -5.95236 27.7374 -7.60731 27.4648 -9.73696L25.481 -9.48301ZM30.6979 -4.89754V-0.736113H32.6979V-4.89754H30.6979ZM31.6979 0.263887H35.4434V-1.73611H31.6979V0.263887ZM34.4437 -0.761271C34.4423 -0.706814 34.4416 -0.652204 34.4416 -0.597452H36.4416C36.4416 -0.635417 36.4421 -0.673252 36.4431 -0.710954L34.4437 -0.761271ZM34.4416 -0.597452C34.4416 2.94139 37.3104 5.81019 40.8493 5.81022L40.8493 3.81022C38.415 3.8102 36.4416 1.83683 36.4416 -0.597452H34.4416ZM41.8493 8.97018V4.81022H39.8493V8.97018H41.8493ZM36.4431 14.2643C36.5031 11.8828 38.453 9.97019 40.8493 9.97018L40.8493 7.97018C37.3653 7.9702 34.5309 10.7505 34.4437 14.2139L36.4431 14.2643ZM31.6979 15.2391H35.4434V13.2391H31.6979V15.2391ZM32.6979 17.2914V14.2391H30.6979V17.2914H32.6979ZM27.4289 22.6973C27.4289 20.3009 29.3415 18.351 31.723 18.291L31.6727 16.2917C28.2093 16.3789 25.4289 19.2132 25.4289 22.6973H27.4289ZM27.4648 23.2637C27.4411 23.0787 27.4289 22.8897 27.4289 22.6973H25.4289C25.4289 22.9748 25.4466 23.2486 25.481 23.5176L27.4648 23.2637ZM22.2251 24.3907H26.4729V22.3907H22.2251V24.3907ZM21.2691 22.6973C21.2691 22.8897 21.2568 23.0787 21.2332 23.2637L23.217 23.5176C23.2514 23.2486 23.2691 22.9748 23.2691 22.6973H21.2691ZM16.8614 18.2896C19.2957 18.2896 21.2691 20.263 21.2691 22.6973H23.2691C23.2691 19.1584 20.4003 16.2896 16.8614 16.2896V18.2896ZM16.7479 18.291C16.7856 18.2901 16.8235 18.2896 16.8614 18.2896V16.2896C16.8067 16.2896 16.7521 16.2903 16.6976 16.2917L16.7479 18.291ZM15.7228 14.2391V17.2914H17.7228V14.2391H15.7228ZM13.2546 15.2391H16.7228V13.2391H13.2546V15.2391ZM7.84867 9.97018C10.245 9.97018 12.1949 11.8827 12.2549 14.2643L14.2543 14.2139C14.167 10.7505 11.3327 7.97018 7.84867 7.97018V9.97018ZM7.84863 9.97018H7.84867V7.97018H7.84863V9.97018ZM6.84863 4.81022V8.97018H8.84863V4.81022H6.84863ZM7.84867 3.81022H7.84863V5.81022H7.84867V3.81022ZM12.2563 -0.59745C12.2563 1.83684 10.283 3.81022 7.84867 3.81022V5.81022C11.3875 5.81022 14.2563 2.94141 14.2563 -0.59745H12.2563ZM12.2549 -0.710954C12.2559 -0.673253 12.2563 -0.635417 12.2563 -0.59745H14.2563C14.2563 -0.652204 14.2557 -0.706813 14.2543 -0.761271L12.2549 -0.710954ZM16.7228 -1.73611H13.2546V0.263887H16.7228V-1.73611ZM15.7228 -4.89754V-0.736113H17.7228V-4.89754H15.7228ZM16.8614 -5.8958C16.8235 -5.8958 16.7856 -5.89628 16.7479 -5.89723L16.6976 -3.89786C16.7521 -3.89649 16.8067 -3.8958 16.8614 -3.8958V-5.8958ZM21.2332 -9.73696C20.9558 -7.57064 19.1034 -5.8958 16.8614 -5.8958V-3.8958C20.1227 -3.8958 22.8135 -6.33122 23.217 -9.48301L21.2332 -9.73696ZM26.4729 -10.61H22.2251V-8.60999H26.4729V-10.61Z" fill="#8B0304" mask="url(#path-3-inside-1)"/>
<mask id="path-5-inside-2" fill="white">
<path fill-rule="evenodd" clip-rule="evenodd" d="M26.4729 25.6094C26.8076 28.2236 29.0089 30.2541 31.6979 30.3218V34.4834H35.4434C35.4422 34.5294 35.4416 34.5756 35.4416 34.6219C35.4416 37.6084 37.8627 40.0295 40.8493 40.0295V44.1896C37.909 44.1896 35.5169 46.5362 35.4434 49.4587H31.6979V52.5108C28.7754 52.5844 26.4289 54.9765 26.4289 57.9167C26.4289 58.1516 26.4438 58.383 26.4729 58.61H22.2251C22.2541 58.383 22.2691 58.1516 22.2691 57.9167C22.2691 54.9301 19.848 52.5091 16.8614 52.5091C16.8151 52.5091 16.7689 52.5096 16.7228 52.5108V49.4587H13.2546C13.1811 46.5362 10.7889 44.1896 7.84867 44.1896H7.84863V40.0295H7.84868C10.8353 40.0295 13.2563 37.6084 13.2563 34.6219C13.2563 34.5756 13.2558 34.5294 13.2546 34.4834H16.7228V30.3218C16.7689 30.3229 16.8151 30.3235 16.8614 30.3235C19.613 30.3235 21.8846 28.2684 22.2251 25.6094H26.4729Z"/>
</mask>
<path fill-rule="evenodd" clip-rule="evenodd" d="M26.4729 25.6094C26.8076 28.2236 29.0089 30.2541 31.6979 30.3218V34.4834H35.4434C35.4422 34.5294 35.4416 34.5756 35.4416 34.6219C35.4416 37.6084 37.8627 40.0295 40.8493 40.0295V44.1896C37.909 44.1896 35.5169 46.5362 35.4434 49.4587H31.6979V52.5108C28.7754 52.5844 26.4289 54.9765 26.4289 57.9167C26.4289 58.1516 26.4438 58.383 26.4729 58.61H22.2251C22.2541 58.383 22.2691 58.1516 22.2691 57.9167C22.2691 54.9301 19.848 52.5091 16.8614 52.5091C16.8151 52.5091 16.7689 52.5096 16.7228 52.5108V49.4587H13.2546C13.1811 46.5362 10.7889 44.1896 7.84867 44.1896H7.84863V40.0295H7.84868C10.8353 40.0295 13.2563 37.6084 13.2563 34.6219C13.2563 34.5756 13.2558 34.5294 13.2546 34.4834H16.7228V30.3218C16.7689 30.3229 16.8151 30.3235 16.8614 30.3235C19.613 30.3235 21.8846 28.2684 22.2251 25.6094H26.4729Z" fill="white"/>
<path d="M26.4729 25.6094L27.4648 25.4824L27.3531 24.6094H26.4729V25.6094ZM31.6979 30.3218H32.6979V29.3466L31.723 29.3221L31.6979 30.3218ZM31.6979 34.4834H30.6979V35.4834H31.6979V34.4834ZM35.4434 34.4834L36.4431 34.5085L36.4688 33.4834H35.4434V34.4834ZM40.8493 40.0295H41.8493V39.0295L40.8493 39.0295L40.8493 40.0295ZM40.8493 44.1896L40.8493 45.1896L41.8493 45.1896V44.1896H40.8493ZM35.4434 49.4587V50.4587H36.4185L36.4431 49.4838L35.4434 49.4587ZM31.6979 49.4587V48.4587H30.6979V49.4587H31.6979ZM31.6979 52.5108L31.723 53.5105L32.6979 53.4859V52.5108H31.6979ZM26.4729 58.61V59.61H27.609L27.4648 58.4831L26.4729 58.61ZM22.2251 58.61L21.2332 58.4831L21.089 59.61H22.2251V58.61ZM16.7228 52.5108H15.7228V53.5363L16.7479 53.5105L16.7228 52.5108ZM16.7228 49.4587H17.7228V48.4587H16.7228V49.4587ZM13.2546 49.4587L12.2549 49.4838L12.2794 50.4587H13.2546V49.4587ZM7.84863 44.1896H6.84863V45.1896H7.84863V44.1896ZM7.84863 40.0295V39.0295H6.84863V40.0295H7.84863ZM13.2546 34.4834V33.4834H12.2292L12.2549 34.5085L13.2546 34.4834ZM16.7228 34.4834V35.4834H17.7228V34.4834H16.7228ZM16.7228 30.3218L16.7479 29.3221L15.7228 29.2963V30.3218H16.7228ZM22.2251 25.6094V24.6094H21.3449L21.2332 25.4824L22.2251 25.6094ZM25.481 25.7364C25.8777 28.8352 28.4852 31.2412 31.6727 31.3215L31.723 29.3221C29.5326 29.267 27.7375 27.612 27.4648 25.4824L25.481 25.7364ZM30.6979 30.3218V34.4834H32.6979V30.3218H30.6979ZM31.6979 35.4834H35.4434V33.4834H31.6979V35.4834ZM34.4437 34.4583C34.4423 34.5127 34.4416 34.5672 34.4416 34.6219H36.4416C36.4416 34.584 36.4421 34.5462 36.4431 34.5085L34.4437 34.4583ZM34.4416 34.6219C34.4416 38.1607 37.3104 41.0295 40.8493 41.0295L40.8493 39.0295C38.415 39.0295 36.4416 37.0561 36.4416 34.6219H34.4416ZM41.8493 44.1896V40.0295H39.8493V44.1896H41.8493ZM36.4431 49.4838C36.503 47.1023 38.4529 45.1896 40.8493 45.1896L40.8493 43.1896C37.3652 43.1896 34.5308 45.9701 34.4437 49.4336L36.4431 49.4838ZM31.6979 50.4587H35.4434V48.4587H31.6979V50.4587ZM32.6979 52.5108V49.4587H30.6979V52.5108H32.6979ZM27.4289 57.9167C27.4289 55.5204 29.3415 53.5704 31.723 53.5105L31.6727 51.5111C28.2093 51.5983 25.4289 54.4327 25.4289 57.9167H27.4289ZM27.4648 58.4831C27.4411 58.2981 27.4289 58.1091 27.4289 57.9167H25.4289C25.4289 58.1942 25.4466 58.468 25.481 58.737L27.4648 58.4831ZM22.2251 59.61H26.4729V57.61H22.2251V59.61ZM21.2691 57.9167C21.2691 58.1091 21.2569 58.2981 21.2332 58.4831L23.217 58.737C23.2514 58.468 23.2691 58.1942 23.2691 57.9167H21.2691ZM16.8614 53.5091C19.2957 53.5091 21.2691 55.4824 21.2691 57.9167H23.2691C23.2691 54.3779 20.4003 51.5091 16.8614 51.5091V53.5091ZM16.7479 53.5105C16.7856 53.5095 16.8235 53.5091 16.8614 53.5091V51.5091C16.8067 51.5091 16.7521 51.5097 16.6976 51.5111L16.7479 53.5105ZM15.7228 49.4587V52.5108H17.7228V49.4587H15.7228ZM13.2546 50.4587H16.7228V48.4587H13.2546V50.4587ZM7.84867 45.1896C10.2451 45.1896 12.195 47.1023 12.2549 49.4838L14.2543 49.4336C14.1672 45.9701 11.3328 43.1896 7.84867 43.1896V45.1896ZM7.84863 45.1896H7.84867V43.1896H7.84863V45.1896ZM6.84863 40.0295V44.1896H8.84863V40.0295H6.84863ZM7.84868 39.0295H7.84863V41.0295H7.84868V39.0295ZM12.2563 34.6219C12.2563 37.0562 10.283 39.0295 7.84868 39.0295V41.0295C11.3875 41.0295 14.2563 38.1607 14.2563 34.6219H12.2563ZM12.2549 34.5085C12.2559 34.5462 12.2563 34.584 12.2563 34.6219H14.2563C14.2563 34.5672 14.2557 34.5127 14.2543 34.4583L12.2549 34.5085ZM16.7228 33.4834H13.2546V35.4834H16.7228V33.4834ZM15.7228 30.3218V34.4834H17.7228V30.3218H15.7228ZM16.8614 29.3235C16.8235 29.3235 16.7856 29.323 16.7479 29.3221L16.6976 31.3215C16.7521 31.3228 16.8067 31.3235 16.8614 31.3235V29.3235ZM21.2332 25.4824C20.9558 27.6487 19.1034 29.3235 16.8614 29.3235V31.3235C20.1227 31.3235 22.8135 28.8881 23.217 25.7364L21.2332 25.4824ZM26.4729 24.6094H22.2251V26.6094H26.4729V24.6094Z" fill="#8B0304" mask="url(#path-5-inside-2)"/>
<mask id="path-7-inside-3" fill="white">
<path fill-rule="evenodd" clip-rule="evenodd" d="M15.6139 15.3484H12.1457C12.0722 12.4259 9.68003 10.0793 6.73979 10.0793C3.79954 10.0793 1.40737 12.4259 1.33386 15.3484H-2.41166V18.4005C-5.33415 18.4741 -7.68066 20.8662 -7.68066 23.8065C-7.68066 26.7467 -5.33415 29.1388 -2.41166 29.2124V33.374H1.33386C1.3327 33.42 1.33212 33.4662 1.33212 33.5125C1.33212 36.499 3.75321 38.9201 6.73979 38.9201C9.72636 38.9201 12.1475 36.499 12.1475 33.5125C12.1475 33.4662 12.1469 33.42 12.1457 33.374H15.6139V29.2124C15.66 29.2135 15.7062 29.2141 15.7526 29.2141C18.7391 29.2141 21.1602 26.793 21.1602 23.8065C21.1602 20.8199 18.7391 18.3988 15.7526 18.3988C15.7062 18.3988 15.66 18.3994 15.6139 18.4005V15.3484Z"/>
</mask>
<path fill-rule="evenodd" clip-rule="evenodd" d="M15.6139 15.3484H12.1457C12.0722 12.4259 9.68003 10.0793 6.73979 10.0793C3.79954 10.0793 1.40737 12.4259 1.33386 15.3484H-2.41166V18.4005C-5.33415 18.4741 -7.68066 20.8662 -7.68066 23.8065C-7.68066 26.7467 -5.33415 29.1388 -2.41166 29.2124V33.374H1.33386C1.3327 33.42 1.33212 33.4662 1.33212 33.5125C1.33212 36.499 3.75321 38.9201 6.73979 38.9201C9.72636 38.9201 12.1475 36.499 12.1475 33.5125C12.1475 33.4662 12.1469 33.42 12.1457 33.374H15.6139V29.2124C15.66 29.2135 15.7062 29.2141 15.7526 29.2141C18.7391 29.2141 21.1602 26.793 21.1602 23.8065C21.1602 20.8199 18.7391 18.3988 15.7526 18.3988C15.7062 18.3988 15.66 18.3994 15.6139 18.4005V15.3484Z" fill="white"/>
<path d="M12.1457 15.3484L11.146 15.3736L11.1705 16.3484H12.1457V15.3484ZM15.6139 15.3484H16.6139V14.3484H15.6139V15.3484ZM1.33386 15.3484V16.3484H2.30902L2.33354 15.3736L1.33386 15.3484ZM-2.41166 15.3484V14.3484H-3.41166V15.3484H-2.41166ZM-2.41166 18.4005L-2.3865 19.4002L-1.41166 19.3757V18.4005H-2.41166ZM-2.41166 29.2124H-1.41166V28.2372L-2.3865 28.2127L-2.41166 29.2124ZM-2.41166 33.374H-3.41166V34.374H-2.41166V33.374ZM1.33386 33.374L2.33354 33.3991L2.35931 32.374H1.33386V33.374ZM12.1457 33.374V32.374H11.1203L11.146 33.3991L12.1457 33.374ZM15.6139 33.374V34.374H16.6139V33.374H15.6139ZM15.6139 29.2124L15.6391 28.2127L14.6139 28.1869V29.2124H15.6139ZM15.6139 18.4005H14.6139V19.426L15.6391 19.4002L15.6139 18.4005ZM12.1457 16.3484H15.6139V14.3484H12.1457V16.3484ZM6.73979 11.0793C9.13617 11.0793 11.0861 12.992 11.146 15.3736L13.1454 15.3233C13.0583 11.8598 10.2239 9.07935 6.73979 9.07935V11.0793ZM2.33354 15.3736C2.39345 12.992 4.34341 11.0793 6.73979 11.0793V9.07935C3.25568 9.07935 0.421292 11.8598 0.334175 15.3233L2.33354 15.3736ZM-2.41166 16.3484H1.33386V14.3484H-2.41166V16.3484ZM-1.41166 18.4005V15.3484H-3.41166V18.4005H-1.41166ZM-6.68066 23.8065C-6.68066 21.4101 -4.76805 19.4602 -2.3865 19.4002L-2.43683 17.4008C-5.90025 17.488 -8.68066 20.3224 -8.68066 23.8065H-6.68066ZM-2.3865 28.2127C-4.76805 28.1528 -6.68066 26.2028 -6.68066 23.8065H-8.68066C-8.68066 27.2905 -5.90025 30.1249 -2.43683 30.2121L-2.3865 28.2127ZM-1.41166 33.374V29.2124H-3.41166V33.374H-1.41166ZM1.33386 32.374H-2.41166V34.374H1.33386V32.374ZM2.33212 33.5125C2.33212 33.4746 2.33259 33.4368 2.33354 33.3991L0.334171 33.3489C0.332804 33.4033 0.332117 33.4578 0.332117 33.5125H2.33212ZM6.73979 37.9201C4.3055 37.9201 2.33212 35.9468 2.33212 33.5125H0.332117C0.332117 37.0513 3.20093 39.9201 6.73979 39.9201V37.9201ZM11.1475 33.5125C11.1475 35.9468 9.17407 37.9201 6.73979 37.9201V39.9201C10.2786 39.9201 13.1475 37.0513 13.1475 33.5125H11.1475ZM11.146 33.3991C11.147 33.4368 11.1475 33.4746 11.1475 33.5125H13.1475C13.1475 33.4578 13.1468 33.4033 13.1454 33.3489L11.146 33.3991ZM15.6139 32.374H12.1457V34.374H15.6139V32.374ZM14.6139 29.2124V33.374H16.6139V29.2124H14.6139ZM15.7526 28.2141C15.7146 28.2141 15.6768 28.2136 15.6391 28.2127L15.5887 30.2121C15.6432 30.2134 15.6978 30.2141 15.7526 30.2141V28.2141ZM20.1602 23.8065C20.1602 26.2407 18.1868 28.2141 15.7526 28.2141V30.2141C19.2914 30.2141 22.1602 27.3453 22.1602 23.8065H20.1602ZM15.7526 19.3988C18.1868 19.3988 20.1602 21.3722 20.1602 23.8065H22.1602C22.1602 20.2676 19.2914 17.3988 15.7526 17.3988V19.3988ZM15.6391 19.4002C15.6768 19.3993 15.7146 19.3988 15.7526 19.3988V17.3988C15.6978 17.3988 15.6432 17.3995 15.5887 17.4008L15.6391 19.4002ZM14.6139 15.3484V18.4005H16.6139V15.3484H14.6139Z" fill="#8B0304" mask="url(#path-7-inside-3)"/>
<mask id="path-9-inside-4" fill="white">
<path fill-rule="evenodd" clip-rule="evenodd" d="M15.6139 -19.9965H12.1457C12.0722 -22.9191 9.68003 -25.2656 6.73979 -25.2656C3.79954 -25.2656 1.40737 -22.9191 1.33386 -19.9965H-2.41166V-16.9444C-5.33415 -16.8709 -7.68066 -14.4787 -7.68066 -11.5385C-7.68066 -8.5983 -5.33415 -6.20615 -2.41166 -6.13259V-1.97097H1.33386C1.3327 -1.92496 1.33212 -1.87879 1.33212 -1.8325C1.33212 1.15407 3.75321 3.57517 6.73979 3.57517C9.72636 3.57517 12.1475 1.15408 12.1475 -1.8325C12.1475 -1.87879 12.1469 -1.92495 12.1457 -1.97097H15.6139V-6.13259C15.66 -6.13143 15.7062 -6.13085 15.7526 -6.13085C18.7391 -6.13085 21.1602 -8.55194 21.1602 -11.5385C21.1602 -14.5251 18.7391 -16.9462 15.7526 -16.9462C15.7062 -16.9462 15.66 -16.9456 15.6139 -16.9444V-19.9965Z"/>
</mask>
<path fill-rule="evenodd" clip-rule="evenodd" d="M15.6139 -19.9965H12.1457C12.0722 -22.9191 9.68003 -25.2656 6.73979 -25.2656C3.79954 -25.2656 1.40737 -22.9191 1.33386 -19.9965H-2.41166V-16.9444C-5.33415 -16.8709 -7.68066 -14.4787 -7.68066 -11.5385C-7.68066 -8.5983 -5.33415 -6.20615 -2.41166 -6.13259V-1.97097H1.33386C1.3327 -1.92496 1.33212 -1.87879 1.33212 -1.8325C1.33212 1.15407 3.75321 3.57517 6.73979 3.57517C9.72636 3.57517 12.1475 1.15408 12.1475 -1.8325C12.1475 -1.87879 12.1469 -1.92495 12.1457 -1.97097H15.6139V-6.13259C15.66 -6.13143 15.7062 -6.13085 15.7526 -6.13085C18.7391 -6.13085 21.1602 -8.55194 21.1602 -11.5385C21.1602 -14.5251 18.7391 -16.9462 15.7526 -16.9462C15.7062 -16.9462 15.66 -16.9456 15.6139 -16.9444V-19.9965Z" fill="white"/>
<path d="M12.1457 -19.9965L11.146 -19.9714L11.1705 -18.9965H12.1457V-19.9965ZM15.6139 -19.9965H16.6139V-20.9965H15.6139V-19.9965ZM1.33386 -19.9965V-18.9965H2.30902L2.33354 -19.9714L1.33386 -19.9965ZM-2.41166 -19.9965V-20.9965H-3.41166V-19.9965H-2.41166ZM-2.41166 -16.9444L-2.3865 -15.9448L-1.41166 -15.9693V-16.9444H-2.41166ZM-2.41166 -6.13259H-1.41166V-7.10773L-2.3865 -7.13227L-2.41166 -6.13259ZM-2.41166 -1.97097H-3.41166V-0.970972H-2.41166V-1.97097ZM1.33386 -1.97097L2.33354 -1.94584L2.35931 -2.97097H1.33386V-1.97097ZM12.1457 -1.97097V-2.97097H11.1203L11.146 -1.94586L12.1457 -1.97097ZM15.6139 -1.97097V-0.970972H16.6139V-1.97097H15.6139ZM15.6139 -6.13259L15.6391 -7.13227L14.6139 -7.15807V-6.13259H15.6139ZM15.6139 -16.9444H14.6139V-15.919L15.6391 -15.9448L15.6139 -16.9444ZM12.1457 -18.9965H15.6139V-20.9965H12.1457V-18.9965ZM6.73979 -24.2656C9.13617 -24.2656 11.0861 -22.353 11.146 -19.9714L13.1454 -20.0217C13.0583 -23.4852 10.2239 -26.2656 6.73979 -26.2656V-24.2656ZM2.33354 -19.9714C2.39345 -22.353 4.34341 -24.2656 6.73979 -24.2656V-26.2656C3.25568 -26.2656 0.421292 -23.4852 0.334175 -20.0217L2.33354 -19.9714ZM-2.41166 -18.9965H1.33386V-20.9965H-2.41166V-18.9965ZM-1.41166 -16.9444V-19.9965H-3.41166V-16.9444H-1.41166ZM-6.68066 -11.5385C-6.68066 -13.9349 -4.76805 -15.8848 -2.3865 -15.9448L-2.43683 -17.9441C-5.90025 -17.8569 -8.68066 -15.0226 -8.68066 -11.5385H-6.68066ZM-2.3865 -7.13227C-4.76805 -7.19222 -6.68066 -9.14216 -6.68066 -11.5385H-8.68066C-8.68066 -8.05445 -5.90025 -5.22008 -2.43683 -5.13291L-2.3865 -7.13227ZM-1.41166 -1.97097V-6.13259H-3.41166V-1.97097H-1.41166ZM1.33386 -2.97097H-2.41166V-0.970972H1.33386V-2.97097ZM2.33212 -1.8325C2.33212 -1.87042 2.33259 -1.9082 2.33354 -1.94584L0.334171 -1.9961C0.332804 -1.94171 0.332117 -1.88717 0.332117 -1.8325H2.33212ZM6.73979 2.57517C4.3055 2.57517 2.33212 0.601789 2.33212 -1.8325H0.332117C0.332117 1.70636 3.20093 4.57517 6.73979 4.57517V2.57517ZM11.1475 -1.8325C11.1475 0.601791 9.17407 2.57517 6.73979 2.57517V4.57517C10.2786 4.57517 13.1475 1.70636 13.1475 -1.8325H11.1475ZM11.146 -1.94586C11.147 -1.90821 11.1475 -1.87042 11.1475 -1.8325H13.1475C13.1475 -1.88717 13.1468 -1.9417 13.1454 -1.99608L11.146 -1.94586ZM15.6139 -2.97097H12.1457V-0.970972H15.6139V-2.97097ZM14.6139 -6.13259V-1.97097H16.6139V-6.13259H14.6139ZM15.7526 -7.13085C15.7146 -7.13085 15.6768 -7.13132 15.6391 -7.13227L15.5887 -5.13291C15.6432 -5.13153 15.6978 -5.13085 15.7526 -5.13085V-7.13085ZM20.1602 -11.5385C20.1602 -9.10423 18.1868 -7.13085 15.7526 -7.13085V-5.13085C19.2914 -5.13085 22.1602 -7.99966 22.1602 -11.5385H20.1602ZM15.7526 -15.9462C18.1868 -15.9462 20.1602 -13.9728 20.1602 -11.5385H22.1602C22.1602 -15.0774 19.2914 -17.9462 15.7526 -17.9462V-15.9462ZM15.6391 -15.9448C15.6768 -15.9457 15.7146 -15.9462 15.7526 -15.9462V-17.9462C15.6978 -17.9462 15.6432 -17.9455 15.5887 -17.9441L15.6391 -15.9448ZM14.6139 -19.9965V-16.9444H16.6139V-19.9965H14.6139Z" fill="#8B0304" mask="url(#path-9-inside-4)"/>
<mask id="path-11-inside-5" fill="white">
<path fill-rule="evenodd" clip-rule="evenodd" d="M15.6139 50.441H12.1457C12.0722 47.5184 9.68003 45.1719 6.73979 45.1719C3.79954 45.1719 1.40737 47.5184 1.33386 50.441H-2.41166V53.4931C-5.33415 53.5666 -7.68066 55.9588 -7.68066 58.899C-7.68066 61.8392 -5.33415 64.2313 -2.41166 64.3049V68.4665H1.33386C1.3327 68.5125 1.33212 68.5587 1.33212 68.605C1.33212 71.5916 3.75321 74.0127 6.73979 74.0127C9.72636 74.0127 12.1475 71.5916 12.1475 68.605C12.1475 68.5587 12.1469 68.5125 12.1457 68.4665H15.6139V64.3049C15.66 64.3061 15.7062 64.3067 15.7526 64.3067C18.7391 64.3067 21.1602 61.8856 21.1602 58.899C21.1602 55.9124 18.7391 53.4913 15.7526 53.4913C15.7062 53.4913 15.66 53.4919 15.6139 53.4931V50.441Z"/>
</mask>
<path fill-rule="evenodd" clip-rule="evenodd" d="M15.6139 50.441H12.1457C12.0722 47.5184 9.68003 45.1719 6.73979 45.1719C3.79954 45.1719 1.40737 47.5184 1.33386 50.441H-2.41166V53.4931C-5.33415 53.5666 -7.68066 55.9588 -7.68066 58.899C-7.68066 61.8392 -5.33415 64.2313 -2.41166 64.3049V68.4665H1.33386C1.3327 68.5125 1.33212 68.5587 1.33212 68.605C1.33212 71.5916 3.75321 74.0127 6.73979 74.0127C9.72636 74.0127 12.1475 71.5916 12.1475 68.605C12.1475 68.5587 12.1469 68.5125 12.1457 68.4665H15.6139V64.3049C15.66 64.3061 15.7062 64.3067 15.7526 64.3067C18.7391 64.3067 21.1602 61.8856 21.1602 58.899C21.1602 55.9124 18.7391 53.4913 15.7526 53.4913C15.7062 53.4913 15.66 53.4919 15.6139 53.4931V50.441Z" fill="white"/>
<path d="M12.1457 50.441L11.146 50.4661L11.1705 51.441H12.1457V50.441ZM15.6139 50.441H16.6139V49.441H15.6139V50.441ZM1.33386 50.441V51.441H2.30902L2.33354 50.4661L1.33386 50.441ZM-2.41166 50.441V49.441H-3.41166V50.441H-2.41166ZM-2.41166 53.4931L-2.3865 54.4927L-1.41166 54.4682V53.4931H-2.41166ZM-2.41166 64.3049H-1.41166V63.3298L-2.3865 63.3052L-2.41166 64.3049ZM-2.41166 68.4665H-3.41166V69.4665H-2.41166V68.4665ZM1.33386 68.4665L2.33354 68.4917L2.35931 67.4665H1.33386V68.4665ZM12.1457 68.4665V67.4665H11.1203L11.146 68.4916L12.1457 68.4665ZM15.6139 68.4665V69.4665H16.6139V68.4665H15.6139ZM15.6139 64.3049L15.6391 63.3052L14.6139 63.2794V64.3049H15.6139ZM15.6139 53.4931H14.6139V54.5185L15.6391 54.4927L15.6139 53.4931ZM12.1457 51.441H15.6139V49.441H12.1457V51.441ZM6.73979 46.1719C9.13617 46.1719 11.0861 48.0845 11.146 50.4661L13.1454 50.4158C13.0583 46.9523 10.2239 44.1719 6.73979 44.1719V46.1719ZM2.33354 50.4661C2.39345 48.0845 4.34341 46.1719 6.73979 46.1719V44.1719C3.25568 44.1719 0.421292 46.9523 0.334175 50.4158L2.33354 50.4661ZM-2.41166 51.441H1.33386V49.441H-2.41166V51.441ZM-1.41166 53.4931V50.441H-3.41166V53.4931H-1.41166ZM-6.68066 58.899C-6.68066 56.5026 -4.76805 54.5527 -2.3865 54.4927L-2.43683 52.4934C-5.90025 52.5806 -8.68066 55.4149 -8.68066 58.899H-6.68066ZM-2.3865 63.3052C-4.76805 63.2453 -6.68066 61.2953 -6.68066 58.899H-8.68066C-8.68066 62.3831 -5.90025 65.2174 -2.43683 65.3046L-2.3865 63.3052ZM-1.41166 68.4665V64.3049H-3.41166V68.4665H-1.41166ZM1.33386 67.4665H-2.41166V69.4665H1.33386V67.4665ZM2.33212 68.605C2.33212 68.5671 2.33259 68.5293 2.33354 68.4917L0.334171 68.4414C0.332804 68.4958 0.332117 68.5503 0.332117 68.605H2.33212ZM6.73979 73.0127C4.3055 73.0127 2.33212 71.0393 2.33212 68.605H0.332117C0.332117 72.1439 3.20093 75.0127 6.73979 75.0127V73.0127ZM11.1475 68.605C11.1475 71.0393 9.17407 73.0127 6.73979 73.0127V75.0127C10.2786 75.0127 13.1475 72.1439 13.1475 68.605H11.1475ZM11.146 68.4916C11.147 68.5293 11.1475 68.5671 11.1475 68.605H13.1475C13.1475 68.5503 13.1468 68.4958 13.1454 68.4414L11.146 68.4916ZM15.6139 67.4665H12.1457V69.4665H15.6139V67.4665ZM14.6139 64.3049V68.4665H16.6139V64.3049H14.6139ZM15.7526 63.3067C15.7146 63.3067 15.6768 63.3062 15.6391 63.3052L15.5887 65.3046C15.6432 65.306 15.6978 65.3067 15.7526 65.3067V63.3067ZM20.1602 58.899C20.1602 61.3333 18.1868 63.3067 15.7526 63.3067V65.3067C19.2914 65.3067 22.1602 62.4378 22.1602 58.899H20.1602ZM15.7526 54.4913C18.1868 54.4913 20.1602 56.4647 20.1602 58.899H22.1602C22.1602 55.3601 19.2914 52.4913 15.7526 52.4913V54.4913ZM15.6391 54.4927C15.6768 54.4918 15.7146 54.4913 15.7526 54.4913V52.4913C15.6978 52.4913 15.6432 52.492 15.5887 52.4934L15.6391 54.4927ZM14.6139 50.441V53.4931H16.6139V50.441H14.6139Z" fill="#8B0304" mask="url(#path-11-inside-5)"/>
<mask id="path-13-inside-6" fill="white">
<path fill-rule="evenodd" clip-rule="evenodd" d="M51.11 15.3484H47.6418C47.5683 12.4259 45.1761 10.0793 42.2359 10.0793C39.2956 10.0793 36.9035 12.4259 36.83 15.3484H33.0844V18.4005C30.1619 18.4741 27.8154 20.8662 27.8154 23.8065C27.8154 26.7467 30.1619 29.1388 33.0844 29.2124V33.374H36.8299C36.8288 33.42 36.8282 33.4662 36.8282 33.5125C36.8282 36.499 39.2493 38.9201 42.2359 38.9201C45.2225 38.9201 47.6435 36.499 47.6435 33.5125C47.6435 33.4662 47.643 33.42 47.6418 33.374H51.11V29.2124C51.1561 29.2135 51.2023 29.2141 51.2486 29.2141C54.2352 29.2141 56.6563 26.793 56.6563 23.8065C56.6563 20.8199 54.2352 18.3988 51.2486 18.3988C51.2023 18.3988 51.1561 18.3994 51.11 18.4005V15.3484Z"/>
</mask>
<path fill-rule="evenodd" clip-rule="evenodd" d="M51.11 15.3484H47.6418C47.5683 12.4259 45.1761 10.0793 42.2359 10.0793C39.2956 10.0793 36.9035 12.4259 36.83 15.3484H33.0844V18.4005C30.1619 18.4741 27.8154 20.8662 27.8154 23.8065C27.8154 26.7467 30.1619 29.1388 33.0844 29.2124V33.374H36.8299C36.8288 33.42 36.8282 33.4662 36.8282 33.5125C36.8282 36.499 39.2493 38.9201 42.2359 38.9201C45.2225 38.9201 47.6435 36.499 47.6435 33.5125C47.6435 33.4662 47.643 33.42 47.6418 33.374H51.11V29.2124C51.1561 29.2135 51.2023 29.2141 51.2486 29.2141C54.2352 29.2141 56.6563 26.793 56.6563 23.8065C56.6563 20.8199 54.2352 18.3988 51.2486 18.3988C51.2023 18.3988 51.1561 18.3994 51.11 18.4005V15.3484Z" fill="white"/>
<path d="M47.6418 15.3484L46.6421 15.3736L46.6666 16.3484H47.6418V15.3484ZM51.11 15.3484H52.11V14.3484H51.11V15.3484ZM36.83 15.3484V16.3484H37.8051L37.8296 15.3736L36.83 15.3484ZM33.0844 15.3484V14.3484H32.0844V15.3484H33.0844ZM33.0844 18.4005L33.1096 19.4002L34.0844 19.3757V18.4005H33.0844ZM33.0844 29.2124H34.0844V28.2372L33.1096 28.2127L33.0844 29.2124ZM33.0844 33.374H32.0844V34.374H33.0844V33.374ZM36.8299 33.374L37.8296 33.3991L37.8554 32.374H36.8299V33.374ZM47.6418 33.374V32.374H46.6164L46.6421 33.3991L47.6418 33.374ZM51.11 33.374V34.374H52.11V33.374H51.11ZM51.11 29.2124L51.1351 28.2127L50.11 28.1869V29.2124H51.11ZM51.11 18.4005H50.11V19.426L51.1351 19.4002L51.11 18.4005ZM47.6418 16.3484H51.11V14.3484H47.6418V16.3484ZM42.2359 11.0793C44.6323 11.0793 46.5822 12.992 46.6421 15.3736L48.6415 15.3233C48.5544 11.8598 45.72 9.07935 42.2359 9.07935V11.0793ZM37.8296 15.3736C37.8895 12.992 39.8395 11.0793 42.2359 11.0793V9.07935C38.7518 9.07935 35.9174 11.8598 35.8303 15.3233L37.8296 15.3736ZM33.0844 16.3484H36.83V14.3484H33.0844V16.3484ZM34.0844 18.4005V15.3484H32.0844V18.4005H34.0844ZM28.8154 23.8065C28.8154 21.4101 30.728 19.4602 33.1096 19.4002L33.0593 17.4008C29.5958 17.488 26.8154 20.3224 26.8154 23.8065H28.8154ZM33.1096 28.2127C30.728 28.1528 28.8154 26.2028 28.8154 23.8065H26.8154C26.8154 27.2905 29.5958 30.1249 33.0593 30.2121L33.1096 28.2127ZM34.0844 33.374V29.2124H32.0844V33.374H34.0844ZM36.8299 32.374H33.0844V34.374H36.8299V32.374ZM37.8282 33.5125C37.8282 33.4746 37.8287 33.4368 37.8296 33.3991L35.8303 33.3489C35.8289 33.4033 35.8282 33.4578 35.8282 33.5125H37.8282ZM42.2359 37.9201C39.8016 37.9201 37.8282 35.9468 37.8282 33.5125H35.8282C35.8282 37.0513 38.697 39.9201 42.2359 39.9201V37.9201ZM46.6435 33.5125C46.6435 35.9468 44.6702 37.9201 42.2359 37.9201V39.9201C45.7747 39.9201 48.6435 37.0513 48.6435 33.5125H46.6435ZM46.6421 33.3991C46.6431 33.4368 46.6435 33.4746 46.6435 33.5125H48.6435C48.6435 33.4578 48.6429 33.4033 48.6415 33.3489L46.6421 33.3991ZM51.11 32.374H47.6418V34.374H51.11V32.374ZM50.11 29.2124V33.374H52.11V29.2124H50.11ZM51.2486 28.2141C51.2107 28.2141 51.1728 28.2136 51.1351 28.2127L51.0848 30.2121C51.1393 30.2134 51.1939 30.2141 51.2486 30.2141V28.2141ZM55.6563 23.8065C55.6563 26.2407 53.6829 28.2141 51.2486 28.2141V30.2141C54.7875 30.2141 57.6563 27.3453 57.6563 23.8065H55.6563ZM51.2486 19.3988C53.6829 19.3988 55.6563 21.3722 55.6563 23.8065H57.6563C57.6563 20.2676 54.7875 17.3988 51.2486 17.3988V19.3988ZM51.1351 19.4002C51.1728 19.3993 51.2107 19.3988 51.2486 19.3988V17.3988C51.1939 17.3988 51.1393 17.3995 51.0848 17.4008L51.1351 19.4002ZM50.11 15.3484V18.4005H52.11V15.3484H50.11Z" fill="#8B0304" mask="url(#path-13-inside-6)"/>
<mask id="path-15-inside-7" fill="white">
<path fill-rule="evenodd" clip-rule="evenodd" d="M28.5361 37.6904H26.9093C26.8749 36.3195 25.7528 35.2188 24.3736 35.2188C22.9944 35.2188 21.8723 36.3195 21.8378 37.6904H20.0809V39.1219C18.7101 39.1564 17.6094 40.2785 17.6094 41.6577C17.6094 43.0368 18.7101 44.1589 20.0809 44.1934V46.1456H21.8378C21.8373 46.1672 21.837 46.1888 21.837 46.2105C21.837 47.6114 22.9727 48.747 24.3736 48.747C25.7745 48.747 26.9101 47.6114 26.9101 46.2105C26.9101 46.1888 26.9099 46.1672 26.9093 46.1456H28.5361V44.1934C28.5578 44.1939 28.5794 44.1942 28.6012 44.1942C30.0021 44.1942 31.1378 43.0586 31.1378 41.6577C31.1378 40.2567 30.0021 39.1211 28.6012 39.1211C28.5794 39.1211 28.5578 39.1214 28.5361 39.1219V37.6904Z"/>
</mask>
<path fill-rule="evenodd" clip-rule="evenodd" d="M28.5361 37.6904H26.9093C26.8749 36.3195 25.7528 35.2188 24.3736 35.2188C22.9944 35.2188 21.8723 36.3195 21.8378 37.6904H20.0809V39.1219C18.7101 39.1564 17.6094 40.2785 17.6094 41.6577C17.6094 43.0368 18.7101 44.1589 20.0809 44.1934V46.1456H21.8378C21.8373 46.1672 21.837 46.1888 21.837 46.2105C21.837 47.6114 22.9727 48.747 24.3736 48.747C25.7745 48.747 26.9101 47.6114 26.9101 46.2105C26.9101 46.1888 26.9099 46.1672 26.9093 46.1456H28.5361V44.1934C28.5578 44.1939 28.5794 44.1942 28.6012 44.1942C30.0021 44.1942 31.1378 43.0586 31.1378 41.6577C31.1378 40.2567 30.0021 39.1211 28.6012 39.1211C28.5794 39.1211 28.5578 39.1214 28.5361 39.1219V37.6904Z" fill="#EFBFBF"/>
<path d="M26.9093 37.6904L25.9096 37.7155L25.9341 38.6904H26.9093V37.6904ZM28.5361 37.6904H29.5361V36.6904H28.5361V37.6904ZM21.8378 37.6904V38.6904H22.813L22.8375 37.7155L21.8378 37.6904ZM20.0809 37.6904V36.6904H19.0809V37.6904H20.0809ZM20.0809 39.1219L20.1061 40.1216L21.0809 40.097V39.1219H20.0809ZM20.0809 44.1934H21.0809V43.2183L20.1061 43.1937L20.0809 44.1934ZM20.0809 46.1456H19.0809V47.1456H20.0809V46.1456ZM21.8378 46.1456L22.8375 46.1707L22.8632 45.1456H21.8378V46.1456ZM26.9093 46.1456V45.1456H25.8839L25.9097 46.1707L26.9093 46.1456ZM28.5361 46.1456V47.1456H29.5361V46.1456H28.5361ZM28.5361 44.1934L28.5613 43.1937L27.5361 43.1679V44.1934H28.5361ZM28.5361 39.1219H27.5361V40.1474L28.5613 40.1216L28.5361 39.1219ZM26.9093 38.6904H28.5361V36.6904H26.9093V38.6904ZM24.3736 36.2188C25.2089 36.2188 25.8888 36.8856 25.9096 37.7155L27.909 37.6653C27.861 35.7534 26.2967 34.2188 24.3736 34.2188V36.2188ZM22.8375 37.7155C22.8584 36.8856 23.5382 36.2188 24.3736 36.2188V34.2188C22.4505 34.2188 20.8862 35.7534 20.8381 37.6653L22.8375 37.7155ZM20.0809 38.6904H21.8378V36.6904H20.0809V38.6904ZM21.0809 39.1219V37.6904H19.0809V39.1219H21.0809ZM18.6094 41.6577C18.6094 40.8223 19.2762 40.1425 20.1061 40.1216L20.0557 38.1222C18.144 38.1703 16.6094 39.7346 16.6094 41.6577H18.6094ZM20.1061 43.1937C19.2762 43.1728 18.6094 42.493 18.6094 41.6577H16.6094C16.6094 43.5807 18.144 45.145 20.0557 45.1931L20.1061 43.1937ZM21.0809 46.1456V44.1934H19.0809V46.1456H21.0809ZM21.8378 45.1456H20.0809V47.1456H21.8378V45.1456ZM22.837 46.2105C22.837 46.1971 22.8372 46.1839 22.8375 46.1707L20.8381 46.1205C20.8374 46.1505 20.837 46.1804 20.837 46.2105H22.837ZM24.3736 47.747C23.525 47.747 22.837 47.0591 22.837 46.2105H20.837C20.837 48.1637 22.4204 49.747 24.3736 49.747V47.747ZM25.9101 46.2105C25.9101 47.0591 25.2222 47.747 24.3736 47.747V49.747C26.3268 49.747 27.9101 48.1637 27.9101 46.2105H25.9101ZM25.9097 46.1707C25.91 46.1839 25.9101 46.1971 25.9101 46.2105H27.9101C27.9101 46.1804 27.9098 46.1505 27.909 46.1205L25.9097 46.1707ZM28.5361 45.1456H26.9093V47.1456H28.5361V45.1456ZM27.5361 44.1934V46.1456H29.5361V44.1934H27.5361ZM28.6012 43.1942C28.5878 43.1942 28.5745 43.1941 28.5613 43.1937L28.511 45.1931C28.541 45.1938 28.571 45.1942 28.6012 45.1942V43.1942ZM30.1378 41.6577C30.1378 42.5063 29.4498 43.1942 28.6012 43.1942V45.1942C30.5544 45.1942 32.1378 43.6108 32.1378 41.6577H30.1378ZM28.6012 40.1211C29.4498 40.1211 30.1378 40.809 30.1378 41.6577H32.1378C32.1378 39.7045 30.5544 38.1211 28.6012 38.1211V40.1211ZM28.5613 40.1216C28.5745 40.1213 28.5878 40.1211 28.6012 40.1211V38.1211C28.571 38.1211 28.541 38.1215 28.511 38.1222L28.5613 40.1216ZM27.5361 37.6904V39.1219H29.5361V37.6904H27.5361Z" fill="#8B0304" mask="url(#path-15-inside-7)"/>
<mask id="path-17-inside-8" fill="white">
<path fill-rule="evenodd" clip-rule="evenodd" d="M28.5361 3.23727H26.9093C26.8749 1.86637 25.7528 0.765625 24.3736 0.765625C22.9944 0.765625 21.8723 1.86637 21.8378 3.23727H20.0809V4.66877C18.7101 4.70328 17.6094 5.82536 17.6094 7.20453C17.6094 8.58369 18.7101 9.70578 20.0809 9.74028V11.6925H21.8378C21.8373 11.7141 21.837 11.7357 21.837 11.7573C21.837 13.1582 22.9727 14.2939 24.3736 14.2939C25.7745 14.2939 26.9101 13.1582 26.9101 11.7573C26.9101 11.7357 26.9099 11.7141 26.9093 11.6925H28.5361V9.74028C28.5578 9.74082 28.5794 9.7411 28.6012 9.7411C30.0021 9.7411 31.1378 8.60544 31.1378 7.20453C31.1378 5.80362 30.0021 4.66796 28.6012 4.66796C28.5794 4.66796 28.5578 4.66823 28.5361 4.66878V3.23727Z"/>
</mask>
<path fill-rule="evenodd" clip-rule="evenodd" d="M28.5361 3.23727H26.9093C26.8749 1.86637 25.7528 0.765625 24.3736 0.765625C22.9944 0.765625 21.8723 1.86637 21.8378 3.23727H20.0809V4.66877C18.7101 4.70328 17.6094 5.82536 17.6094 7.20453C17.6094 8.58369 18.7101 9.70578 20.0809 9.74028V11.6925H21.8378C21.8373 11.7141 21.837 11.7357 21.837 11.7573C21.837 13.1582 22.9727 14.2939 24.3736 14.2939C25.7745 14.2939 26.9101 13.1582 26.9101 11.7573C26.9101 11.7357 26.9099 11.7141 26.9093 11.6925H28.5361V9.74028C28.5578 9.74082 28.5794 9.7411 28.6012 9.7411C30.0021 9.7411 31.1378 8.60544 31.1378 7.20453C31.1378 5.80362 30.0021 4.66796 28.6012 4.66796C28.5794 4.66796 28.5578 4.66823 28.5361 4.66878V3.23727Z" fill="#EFBFBF"/>
<path d="M26.9093 3.23727L25.9096 3.26239L25.9341 4.23727H26.9093V3.23727ZM28.5361 3.23727H29.5361V2.23727H28.5361V3.23727ZM21.8378 3.23727V4.23727H22.813L22.8375 3.26239L21.8378 3.23727ZM20.0809 3.23727V2.23727H19.0809V3.23727H20.0809ZM20.0809 4.66877L20.1061 5.66846L21.0809 5.64392V4.66877H20.0809ZM20.0809 9.74028H21.0809V8.76513L20.1061 8.7406L20.0809 9.74028ZM20.0809 11.6925H19.0809V12.6925H20.0809V11.6925ZM21.8378 11.6925L22.8375 11.7176L22.8632 10.6925H21.8378V11.6925ZM26.9093 11.6925V10.6925H25.8839L25.9097 11.7176L26.9093 11.6925ZM28.5361 11.6925V12.6925H29.5361V11.6925H28.5361ZM28.5361 9.74028L28.5613 8.7406L27.5361 8.71477V9.74028H28.5361ZM28.5361 4.66878H27.5361V5.69426L28.5613 5.66846L28.5361 4.66878ZM26.9093 4.23727H28.5361V2.23727H26.9093V4.23727ZM24.3736 1.76562C25.2089 1.76562 25.8888 2.43244 25.9096 3.26239L27.909 3.21215C27.861 1.30029 26.2967 -0.234375 24.3736 -0.234375V1.76562ZM22.8375 3.26239C22.8584 2.43244 23.5382 1.76562 24.3736 1.76562V-0.234375C22.4505 -0.234375 20.8862 1.30029 20.8381 3.21216L22.8375 3.26239ZM20.0809 4.23727H21.8378V2.23727H20.0809V4.23727ZM21.0809 4.66877V3.23727H19.0809V4.66877H21.0809ZM18.6094 7.20453C18.6094 6.36922 19.2762 5.68935 20.1061 5.66846L20.0557 3.66909C18.144 3.71721 16.6094 5.28151 16.6094 7.20453H18.6094ZM20.1061 8.7406C19.2762 8.71971 18.6094 8.03983 18.6094 7.20453H16.6094C16.6094 9.12755 18.144 10.6918 20.0557 10.74L20.1061 8.7406ZM21.0809 11.6925V9.74028H19.0809V11.6925H21.0809ZM21.8378 10.6925H20.0809V12.6925H21.8378V10.6925ZM22.837 11.7573C22.837 11.744 22.8372 11.7308 22.8375 11.7176L20.8381 11.6674C20.8374 11.6973 20.837 11.7273 20.837 11.7573H22.837ZM24.3736 13.2939C23.525 13.2939 22.837 12.606 22.837 11.7573H20.837C20.837 13.7105 22.4204 15.2939 24.3736 15.2939V13.2939ZM25.9101 11.7573C25.9101 12.606 25.2222 13.2939 24.3736 13.2939V15.2939C26.3268 15.2939 27.9101 13.7105 27.9101 11.7573H25.9101ZM25.9097 11.7176C25.91 11.7308 25.9101 11.744 25.9101 11.7573H27.9101C27.9101 11.7273 27.9098 11.6973 27.909 11.6674L25.9097 11.7176ZM28.5361 10.6925H26.9093V12.6925H28.5361V10.6925ZM27.5361 9.74028V11.6925H29.5361V9.74028H27.5361ZM28.6012 8.7411C28.5878 8.7411 28.5745 8.74093 28.5613 8.7406L28.511 10.74C28.541 10.7407 28.571 10.7411 28.6012 10.7411V8.7411ZM30.1378 7.20453C30.1378 8.05315 29.4498 8.7411 28.6012 8.7411V10.7411C30.5544 10.7411 32.1378 9.15772 32.1378 7.20453H30.1378ZM28.6012 5.66796C29.4498 5.66796 30.1378 6.3559 30.1378 7.20453H32.1378C32.1378 5.25133 30.5544 3.66796 28.6012 3.66796V5.66796ZM28.5613 5.66846C28.5745 5.66813 28.5878 5.66796 28.6012 5.66796V3.66796C28.571 3.66796 28.541 3.66834 28.511 3.66909L28.5613 5.66846ZM27.5361 3.23727V4.66878H29.5361V3.23727H27.5361Z" fill="#8B0304" mask="url(#path-17-inside-8)"/>
<mask id="path-19-inside-9" fill="white">
<path fill-rule="evenodd" clip-rule="evenodd" d="M51.11 -20.7622H47.6418C47.5683 -23.6847 45.1761 -26.0312 42.2359 -26.0312C39.2956 -26.0312 36.9035 -23.6847 36.83 -20.7622H33.0844V-17.7101C30.1619 -17.6365 27.8154 -15.2443 27.8154 -12.3041C27.8154 -9.36393 30.1619 -6.97178 33.0844 -6.89821V-2.7366H36.83C36.8288 -2.69058 36.8282 -2.64442 36.8282 -2.59812C36.8282 0.388449 39.2493 2.80955 42.2359 2.80955C45.2225 2.80955 47.6435 0.388451 47.6435 -2.59812C47.6435 -2.64442 47.643 -2.69058 47.6418 -2.7366H51.11V-6.89821C51.1561 -6.89705 51.2023 -6.89647 51.2486 -6.89647C54.2352 -6.89647 56.6563 -9.31757 56.6563 -12.3041C56.6563 -15.2907 54.2352 -17.7118 51.2486 -17.7118C51.2023 -17.7118 51.1561 -17.7112 51.11 -17.7101V-20.7622Z"/>
</mask>
<path fill-rule="evenodd" clip-rule="evenodd" d="M51.11 -20.7622H47.6418C47.5683 -23.6847 45.1761 -26.0312 42.2359 -26.0312C39.2956 -26.0312 36.9035 -23.6847 36.83 -20.7622H33.0844V-17.7101C30.1619 -17.6365 27.8154 -15.2443 27.8154 -12.3041C27.8154 -9.36393 30.1619 -6.97178 33.0844 -6.89821V-2.7366H36.83C36.8288 -2.69058 36.8282 -2.64442 36.8282 -2.59812C36.8282 0.388449 39.2493 2.80955 42.2359 2.80955C45.2225 2.80955 47.6435 0.388451 47.6435 -2.59812C47.6435 -2.64442 47.643 -2.69058 47.6418 -2.7366H51.11V-6.89821C51.1561 -6.89705 51.2023 -6.89647 51.2486 -6.89647C54.2352 -6.89647 56.6563 -9.31757 56.6563 -12.3041C56.6563 -15.2907 54.2352 -17.7118 51.2486 -17.7118C51.2023 -17.7118 51.1561 -17.7112 51.11 -17.7101V-20.7622Z" fill="white"/>
<path d="M47.6418 -20.7622L46.6421 -20.737L46.6666 -19.7622H47.6418V-20.7622ZM51.11 -20.7622H52.11V-21.7622H51.11V-20.7622ZM36.83 -20.7622V-19.7622H37.8051L37.8296 -20.737L36.83 -20.7622ZM33.0844 -20.7622V-21.7622H32.0844V-20.7622H33.0844ZM33.0844 -17.7101L33.1096 -16.7104L34.0844 -16.7349V-17.7101H33.0844ZM33.0844 -6.89821H34.0844V-7.87336L33.1096 -7.8979L33.0844 -6.89821ZM33.0844 -2.7366H32.0844V-1.7366H33.0844V-2.7366ZM36.83 -2.7366L37.8296 -2.71147L37.8554 -3.7366H36.83V-2.7366ZM47.6418 -2.7366V-3.7366H46.6164L46.6421 -2.71149L47.6418 -2.7366ZM51.11 -2.7366V-1.7366H52.11V-2.7366H51.11ZM51.11 -6.89821L51.1351 -7.8979L50.11 -7.9237V-6.89821H51.11ZM51.11 -17.7101H50.11V-16.6846L51.1351 -16.7104L51.11 -17.7101ZM47.6418 -19.7622H51.11V-21.7622H47.6418V-19.7622ZM42.2359 -25.0312C44.6323 -25.0312 46.5822 -23.1186 46.6421 -20.737L48.6415 -20.7873C48.5544 -24.2508 45.72 -27.0312 42.2359 -27.0312V-25.0312ZM37.8296 -20.737C37.8895 -23.1186 39.8395 -25.0312 42.2359 -25.0312V-27.0312C38.7518 -27.0312 35.9174 -24.2508 35.8303 -20.7873L37.8296 -20.737ZM33.0844 -19.7622H36.83V-21.7622H33.0844V-19.7622ZM34.0844 -17.7101V-20.7622H32.0844V-17.7101H34.0844ZM28.8154 -12.3041C28.8154 -14.7005 30.728 -16.6504 33.1096 -16.7104L33.0593 -18.7097C29.5958 -18.6226 26.8154 -15.7882 26.8154 -12.3041H28.8154ZM33.1096 -7.8979C30.728 -7.95784 28.8154 -9.90779 28.8154 -12.3041H26.8154C26.8154 -8.82007 29.5958 -5.98571 33.0593 -5.89853L33.1096 -7.8979ZM34.0844 -2.7366V-6.89821H32.0844V-2.7366H34.0844ZM36.83 -3.7366H33.0844V-1.7366H36.83V-3.7366ZM37.8282 -2.59812C37.8282 -2.63604 37.8287 -2.67383 37.8296 -2.71147L35.8303 -2.76173C35.8289 -2.70733 35.8282 -2.6528 35.8282 -2.59812H37.8282ZM42.2359 1.80955C39.8016 1.80955 37.8282 -0.163836 37.8282 -2.59812H35.8282C35.8282 0.940733 38.697 3.80955 42.2359 3.80955V1.80955ZM46.6435 -2.59812C46.6435 -0.163834 44.6702 1.80955 42.2359 1.80955V3.80955C45.7747 3.80955 48.6435 0.940735 48.6435 -2.59812H46.6435ZM46.6421 -2.71149C46.6431 -2.67383 46.6435 -2.63604 46.6435 -2.59812H48.6435C48.6435 -2.6528 48.6429 -2.70733 48.6415 -2.76171L46.6421 -2.71149ZM51.11 -3.7366H47.6418V-1.7366H51.11V-3.7366ZM50.11 -6.89821V-2.7366H52.11V-6.89821H50.11ZM51.2486 -7.89647C51.2107 -7.89647 51.1728 -7.89695 51.1351 -7.8979L51.0848 -5.89853C51.1393 -5.89716 51.1939 -5.89647 51.2486 -5.89647V-7.89647ZM55.6563 -12.3041C55.6563 -9.86985 53.6829 -7.89647 51.2486 -7.89647V-5.89647C54.7875 -5.89647 57.6563 -8.76528 57.6563 -12.3041H55.6563ZM51.2486 -16.7118C53.6829 -16.7118 55.6563 -14.7384 55.6563 -12.3041H57.6563C57.6563 -15.843 54.7875 -18.7118 51.2486 -18.7118V-16.7118ZM51.1351 -16.7104C51.1728 -16.7113 51.2107 -16.7118 51.2486 -16.7118V-18.7118C51.1939 -18.7118 51.1393 -18.7111 51.0848 -18.7097L51.1351 -16.7104ZM50.11 -20.7622V-17.7101H52.11V-20.7622H50.11Z" fill="#8B0304" mask="url(#path-19-inside-9)"/>
<mask id="path-21-inside-10" fill="white">
<path fill-rule="evenodd" clip-rule="evenodd" d="M51.11 51.2066H47.6418C47.5683 48.2841 45.1761 45.9375 42.2359 45.9375C39.2956 45.9375 36.9035 48.2841 36.83 51.2066H33.0844V54.2587C30.1619 54.3322 27.8154 56.7244 27.8154 59.6646C27.8154 62.6048 30.1619 64.997 33.0844 65.0705V69.2322H36.83C36.8288 69.2782 36.8282 69.3243 36.8282 69.3706C36.8282 72.3572 39.2493 74.7783 42.2359 74.7783C45.2225 74.7783 47.6435 72.3572 47.6435 69.3706C47.6435 69.3243 47.643 69.2782 47.6418 69.2322H51.11V65.0705C51.1561 65.0717 51.2023 65.0723 51.2486 65.0723C54.2352 65.0723 56.6563 62.6512 56.6563 59.6646C56.6563 56.678 54.2352 54.2569 51.2486 54.2569C51.2023 54.2569 51.1561 54.2575 51.11 54.2587V51.2066Z"/>
</mask>
<path fill-rule="evenodd" clip-rule="evenodd" d="M51.11 51.2066H47.6418C47.5683 48.2841 45.1761 45.9375 42.2359 45.9375C39.2956 45.9375 36.9035 48.2841 36.83 51.2066H33.0844V54.2587C30.1619 54.3322 27.8154 56.7244 27.8154 59.6646C27.8154 62.6048 30.1619 64.997 33.0844 65.0705V69.2322H36.83C36.8288 69.2782 36.8282 69.3243 36.8282 69.3706C36.8282 72.3572 39.2493 74.7783 42.2359 74.7783C45.2225 74.7783 47.6435 72.3572 47.6435 69.3706C47.6435 69.3243 47.643 69.2782 47.6418 69.2322H51.11V65.0705C51.1561 65.0717 51.2023 65.0723 51.2486 65.0723C54.2352 65.0723 56.6563 62.6512 56.6563 59.6646C56.6563 56.678 54.2352 54.2569 51.2486 54.2569C51.2023 54.2569 51.1561 54.2575 51.11 54.2587V51.2066Z" fill="white"/>
<path d="M47.6418 51.2066L46.6421 51.2317L46.6666 52.2066H47.6418V51.2066ZM51.11 51.2066H52.11V50.2066H51.11V51.2066ZM36.83 51.2066V52.2066H37.8051L37.8296 51.2317L36.83 51.2066ZM33.0844 51.2066V50.2066H32.0844V51.2066H33.0844ZM33.0844 54.2587L33.1096 55.2584L34.0844 55.2338V54.2587H33.0844ZM33.0844 65.0705H34.0844V64.0954L33.1096 64.0709L33.0844 65.0705ZM33.0844 69.2322H32.0844V70.2322H33.0844V69.2322ZM36.83 69.2322L37.8296 69.2573L37.8554 68.2322H36.83V69.2322ZM47.6418 69.2322V68.2322H46.6164L46.6421 69.2573L47.6418 69.2322ZM51.11 69.2322V70.2322H52.11V69.2322H51.11ZM51.11 65.0705L51.1351 64.0709L50.11 64.0451V65.0705H51.11ZM51.11 54.2587H50.11V55.2842L51.1351 55.2584L51.11 54.2587ZM47.6418 52.2066H51.11V50.2066H47.6418V52.2066ZM42.2359 46.9375C44.6323 46.9375 46.5822 48.8502 46.6421 51.2317L48.6415 51.1814C48.5544 47.718 45.72 44.9375 42.2359 44.9375V46.9375ZM37.8296 51.2317C37.8895 48.8502 39.8395 46.9375 42.2359 46.9375V44.9375C38.7518 44.9375 35.9174 47.718 35.8303 51.1814L37.8296 51.2317ZM33.0844 52.2066H36.83V50.2066H33.0844V52.2066ZM34.0844 54.2587V51.2066H32.0844V54.2587H34.0844ZM28.8154 59.6646C28.8154 57.2683 30.728 55.3183 33.1096 55.2584L33.0593 53.259C29.5958 53.3462 26.8154 56.1805 26.8154 59.6646H28.8154ZM33.1096 64.0709C30.728 64.0109 28.8154 62.061 28.8154 59.6646H26.8154C26.8154 63.1487 29.5958 65.983 33.0593 66.0702L33.1096 64.0709ZM34.0844 69.2322V65.0705H32.0844V69.2322H34.0844ZM36.83 68.2322H33.0844V70.2322H36.83V68.2322ZM37.8282 69.3706C37.8282 69.3327 37.8287 69.2949 37.8296 69.2573L35.8303 69.207C35.8289 69.2614 35.8282 69.316 35.8282 69.3706H37.8282ZM42.2359 73.7783C39.8016 73.7783 37.8282 71.8049 37.8282 69.3706H35.8282C35.8282 72.9095 38.697 75.7783 42.2359 75.7783V73.7783ZM46.6435 69.3706C46.6435 71.8049 44.6702 73.7783 42.2359 73.7783V75.7783C45.7747 75.7783 48.6435 72.9095 48.6435 69.3706H46.6435ZM46.6421 69.2573C46.6431 69.2949 46.6435 69.3327 46.6435 69.3706H48.6435C48.6435 69.316 48.6429 69.2614 48.6415 69.207L46.6421 69.2573ZM51.11 68.2322H47.6418V70.2322H51.11V68.2322ZM50.11 65.0705V69.2322H52.11V65.0705H50.11ZM51.2486 64.0723C51.2107 64.0723 51.1728 64.0718 51.1351 64.0709L51.0848 66.0702C51.1393 66.0716 51.1939 66.0723 51.2486 66.0723V64.0723ZM55.6563 59.6646C55.6563 62.0989 53.6829 64.0723 51.2486 64.0723V66.0723C54.7875 66.0723 57.6563 63.2035 57.6563 59.6646H55.6563ZM51.2486 55.2569C53.6829 55.2569 55.6563 57.2303 55.6563 59.6646H57.6563C57.6563 56.1258 54.7875 53.2569 51.2486 53.2569V55.2569ZM51.1351 55.2584C51.1728 55.2574 51.2107 55.2569 51.2486 55.2569V53.2569C51.1939 53.2569 51.1393 53.2576 51.0848 53.259L51.1351 55.2584ZM50.11 51.2066V54.2587H52.11V51.2066H50.11Z" fill="#8B0304" mask="url(#path-21-inside-10)"/>
<mask id="path-23-inside-11" fill="white">
<path fill-rule="evenodd" clip-rule="evenodd" d="M61.4993 -9.60999C61.8339 -6.99573 64.0353 -4.96523 66.7242 -4.89754V-0.736113H70.4697C70.4686 -0.690033 70.468 -0.64381 70.468 -0.597452C70.468 2.38912 72.8891 4.81022 75.8757 4.81022V8.97018C72.9355 8.97018 70.5433 11.3166 70.4697 14.2391H66.7242V17.2914C63.8017 17.3649 61.4552 19.7571 61.4552 22.6973C61.4552 22.9322 61.4702 23.1636 61.4992 23.3907H57.2514C57.2805 23.1636 57.2954 22.9322 57.2954 22.6973C57.2954 19.7107 54.8743 17.2896 51.8878 17.2896C51.8414 17.2896 51.7952 17.2902 51.7491 17.2914V14.2391H48.2809C48.2073 11.3166 45.8152 8.97018 42.875 8.97018V4.81022C45.8616 4.81022 48.2827 2.38912 48.2827 -0.59745C48.2827 -0.64381 48.2821 -0.690033 48.2809 -0.736113H51.7491V-4.89754C51.7952 -4.89638 51.8414 -4.8958 51.8878 -4.8958C54.6394 -4.8958 56.911 -6.95093 57.2514 -9.60999H61.4993Z"/>
</mask>
<path fill-rule="evenodd" clip-rule="evenodd" d="M61.4993 -9.60999C61.8339 -6.99573 64.0353 -4.96523 66.7242 -4.89754V-0.736113H70.4697C70.4686 -0.690033 70.468 -0.64381 70.468 -0.597452C70.468 2.38912 72.8891 4.81022 75.8757 4.81022V8.97018C72.9355 8.97018 70.5433 11.3166 70.4697 14.2391H66.7242V17.2914C63.8017 17.3649 61.4552 19.7571 61.4552 22.6973C61.4552 22.9322 61.4702 23.1636 61.4992 23.3907H57.2514C57.2805 23.1636 57.2954 22.9322 57.2954 22.6973C57.2954 19.7107 54.8743 17.2896 51.8878 17.2896C51.8414 17.2896 51.7952 17.2902 51.7491 17.2914V14.2391H48.2809C48.2073 11.3166 45.8152 8.97018 42.875 8.97018V4.81022C45.8616 4.81022 48.2827 2.38912 48.2827 -0.59745C48.2827 -0.64381 48.2821 -0.690033 48.2809 -0.736113H51.7491V-4.89754C51.7952 -4.89638 51.8414 -4.8958 51.8878 -4.8958C54.6394 -4.8958 56.911 -6.95093 57.2514 -9.60999H61.4993Z" fill="white"/>
<path d="M61.4993 -9.60999L62.4912 -9.73696L62.3794 -10.61H61.4993V-9.60999ZM66.7242 -4.89754H67.7242V-5.87269L66.7494 -5.89723L66.7242 -4.89754ZM66.7242 -0.736113H65.7242V0.263887H66.7242V-0.736113ZM70.4697 -0.736113L71.4694 -0.710954L71.4952 -1.73611H70.4697V-0.736113ZM75.8757 4.81022H76.8757V3.81022H75.8757V4.81022ZM75.8757 8.97018V9.97018H76.8757V8.97018H75.8757ZM70.4697 14.2391V15.2391H71.4449L71.4694 14.2643L70.4697 14.2391ZM66.7242 14.2391V13.2391H65.7242V14.2391H66.7242ZM66.7242 17.2914L66.7494 18.291L67.7242 18.2665V17.2914H66.7242ZM61.4992 23.3907V24.3907H62.6354L62.4912 23.2637L61.4992 23.3907ZM57.2514 23.3907L56.2595 23.2637L56.1153 24.3907H57.2514V23.3907ZM51.7491 17.2914H50.7491V18.3168L51.7743 18.291L51.7491 17.2914ZM51.7491 14.2391H52.7491V13.2391H51.7491V14.2391ZM48.2809 14.2391L47.2812 14.2643L47.3058 15.2391H48.2809V14.2391ZM42.875 8.97018H41.875V9.97018H42.875V8.97018ZM42.875 4.81022V3.81022H41.875V4.81022H42.875ZM48.2809 -0.736113V-1.73611H47.2554L47.2812 -0.710954L48.2809 -0.736113ZM51.7491 -0.736113V0.263887H52.7491V-0.736113H51.7491ZM51.7491 -4.89754L51.7743 -5.89723L50.7491 -5.92303V-4.89754H51.7491ZM57.2514 -9.60999V-10.61H56.3712L56.2595 -9.73696L57.2514 -9.60999ZM60.5074 -9.48301C60.9041 -6.38416 63.5116 -3.97809 66.699 -3.89786L66.7494 -5.89723C64.559 -5.95236 62.7638 -7.60731 62.4912 -9.73696L60.5074 -9.48301ZM65.7242 -4.89754V-0.736113H67.7242V-4.89754H65.7242ZM66.7242 0.263887H70.4697V-1.73611H66.7242V0.263887ZM69.4701 -0.761271C69.4687 -0.706814 69.468 -0.652204 69.468 -0.597452H71.468C71.468 -0.635417 71.4685 -0.673252 71.4694 -0.710954L69.4701 -0.761271ZM69.468 -0.597452C69.468 2.9414 72.3368 5.81022 75.8757 5.81022V3.81022C73.4414 3.81022 71.468 1.83684 71.468 -0.597452H69.468ZM74.8757 4.81022V8.97018H76.8757V4.81022H74.8757ZM75.8757 7.97018C72.3916 7.97018 69.5573 10.7505 69.4701 14.2139L71.4694 14.2643C71.5294 11.8827 73.4793 9.97018 75.8757 9.97018V7.97018ZM70.4697 13.2391H66.7242V15.2391H70.4697V13.2391ZM65.7242 14.2391V17.2914H67.7242V14.2391H65.7242ZM66.699 16.2917C63.2356 16.3789 60.4552 19.2132 60.4552 22.6973H62.4552C62.4552 20.3009 64.3678 18.351 66.7494 18.291L66.699 16.2917ZM60.4552 22.6973C60.4552 22.9748 60.4729 23.2486 60.5073 23.5176L62.4912 23.2637C62.4675 23.0787 62.4552 22.8897 62.4552 22.6973H60.4552ZM61.4992 22.3907H57.2514V24.3907H61.4992V22.3907ZM58.2433 23.5176C58.2777 23.2486 58.2954 22.9748 58.2954 22.6973H56.2954C56.2954 22.8897 56.2832 23.0787 56.2595 23.2637L58.2433 23.5176ZM58.2954 22.6973C58.2954 19.1584 55.4266 16.2896 51.8878 16.2896V18.2896C54.3221 18.2896 56.2954 20.263 56.2954 22.6973H58.2954ZM51.8878 16.2896C51.833 16.2896 51.7784 16.2903 51.724 16.2917L51.7743 18.291C51.812 18.2901 51.8498 18.2896 51.8878 18.2896V16.2896ZM52.7491 17.2914V14.2391H50.7491V17.2914H52.7491ZM51.7491 13.2391H48.2809V15.2391H51.7491V13.2391ZM49.2806 14.2139C49.1934 10.7505 46.359 7.97018 42.875 7.97018V9.97018C45.2713 9.97018 47.2213 11.8827 47.2812 14.2643L49.2806 14.2139ZM43.875 8.97018V4.81022H41.875V8.97018H43.875ZM42.875 5.81022C46.4139 5.81022 49.2827 2.94141 49.2827 -0.59745H47.2827C47.2827 1.83684 45.3093 3.81022 42.875 3.81022V5.81022ZM49.2827 -0.59745C49.2827 -0.652204 49.282 -0.706813 49.2806 -0.761271L47.2812 -0.710954C47.2822 -0.673253 47.2827 -0.635417 47.2827 -0.59745H49.2827ZM48.2809 0.263887H51.7491V-1.73611H48.2809V0.263887ZM52.7491 -0.736113V-4.89754H50.7491V-0.736113H52.7491ZM51.724 -3.89786C51.7784 -3.89649 51.833 -3.8958 51.8878 -3.8958V-5.8958C51.8498 -5.8958 51.812 -5.89628 51.7743 -5.89723L51.724 -3.89786ZM51.8878 -3.8958C55.149 -3.8958 57.8398 -6.33122 58.2433 -9.48301L56.2595 -9.73696C55.9822 -7.57064 54.1298 -5.8958 51.8878 -5.8958V-3.8958ZM57.2514 -8.60999H61.4993V-10.61H57.2514V-8.60999Z" fill="#8B0304" mask="url(#path-23-inside-11)"/>
<mask id="path-25-inside-12" fill="white">
<path fill-rule="evenodd" clip-rule="evenodd" d="M-8.17263 -9.60999C-7.83797 -6.99573 -5.63663 -4.96523 -2.94769 -4.89754V-0.736113H0.79784C0.79668 -0.690033 0.796097 -0.64381 0.796097 -0.597452C0.796097 2.38912 3.21719 4.81022 6.20376 4.81022V8.97018C3.26358 8.97018 0.871449 11.3166 0.79784 14.2391H-2.94769V17.2914C-5.87017 17.3649 -8.21669 19.7571 -8.21669 22.6973C-8.21669 22.9322 -8.20171 23.1636 -8.17265 23.3907H-12.4205C-12.3914 23.1636 -12.3764 22.9322 -12.3764 22.6973C-12.3764 19.7107 -14.7975 17.2896 -17.7841 17.2896C-17.8304 17.2896 -17.8767 17.2902 -17.9227 17.2914V14.2391H-21.3909C-21.4645 11.3166 -23.8567 8.97018 -26.7969 8.97018H-26.7969V4.81022H-26.7969C-23.8103 4.81022 -21.3892 2.38912 -21.3892 -0.59745C-21.3892 -0.64381 -21.3898 -0.690033 -21.3909 -0.736113H-17.9227V-4.89754C-17.8767 -4.89638 -17.8304 -4.8958 -17.7841 -4.8958C-15.0325 -4.8958 -12.7609 -6.95093 -12.4205 -9.60999H-8.17263Z"/>
</mask>
<path fill-rule="evenodd" clip-rule="evenodd" d="M-8.17263 -9.60999C-7.83797 -6.99573 -5.63663 -4.96523 -2.94769 -4.89754V-0.736113H0.79784C0.79668 -0.690033 0.796097 -0.64381 0.796097 -0.597452C0.796097 2.38912 3.21719 4.81022 6.20376 4.81022V8.97018C3.26358 8.97018 0.871449 11.3166 0.79784 14.2391H-2.94769V17.2914C-5.87017 17.3649 -8.21669 19.7571 -8.21669 22.6973C-8.21669 22.9322 -8.20171 23.1636 -8.17265 23.3907H-12.4205C-12.3914 23.1636 -12.3764 22.9322 -12.3764 22.6973C-12.3764 19.7107 -14.7975 17.2896 -17.7841 17.2896C-17.8304 17.2896 -17.8767 17.2902 -17.9227 17.2914V14.2391H-21.3909C-21.4645 11.3166 -23.8567 8.97018 -26.7969 8.97018H-26.7969V4.81022H-26.7969C-23.8103 4.81022 -21.3892 2.38912 -21.3892 -0.59745C-21.3892 -0.64381 -21.3898 -0.690033 -21.3909 -0.736113H-17.9227V-4.89754C-17.8767 -4.89638 -17.8304 -4.8958 -17.7841 -4.8958C-15.0325 -4.8958 -12.7609 -6.95093 -12.4205 -9.60999H-8.17263Z" fill="white"/>
<path d="M-8.17263 -9.60999L-7.18073 -9.73696L-7.29249 -10.61H-8.17263V-9.60999ZM-2.94769 -4.89754H-1.94769V-5.87269L-2.92253 -5.89723L-2.94769 -4.89754ZM-2.94769 -0.736113H-3.94769V0.263887H-2.94769V-0.736113ZM0.79784 -0.736113L1.79752 -0.710954L1.82332 -1.73611H0.79784V-0.736113ZM6.20376 4.81022H7.20376V3.81022H6.20376V4.81022ZM6.20376 8.97018V9.97018H7.20376V8.97018H6.20376ZM0.79784 14.2391V15.2391H1.77297L1.79752 14.2643L0.79784 14.2391ZM-2.94769 14.2391V13.2391H-3.94769V14.2391H-2.94769ZM-2.94769 17.2914L-2.92253 18.291L-1.94769 18.2665V17.2914H-2.94769ZM-8.17265 23.3907V24.3907H-7.0365L-7.18074 23.2637L-8.17265 23.3907ZM-12.4205 23.3907L-13.4124 23.2637L-13.5566 24.3907H-12.4205V23.3907ZM-17.9227 17.2914H-18.9227V18.3168L-17.8976 18.291L-17.9227 17.2914ZM-17.9227 14.2391H-16.9227V13.2391H-17.9227V14.2391ZM-21.3909 14.2391L-22.3906 14.2643L-22.3661 15.2391H-21.3909V14.2391ZM-26.7969 8.97018H-27.7969V9.97018H-26.7969V8.97018ZM-26.7969 4.81022V3.81022H-27.7969V4.81022H-26.7969ZM-21.3909 -0.736113V-1.73611H-22.4164L-22.3906 -0.710954L-21.3909 -0.736113ZM-17.9227 -0.736113V0.263887H-16.9227V-0.736113H-17.9227ZM-17.9227 -4.89754L-17.8976 -5.89723L-18.9227 -5.92303V-4.89754H-17.9227ZM-12.4205 -9.60999V-10.61H-13.3006L-13.4124 -9.73696L-12.4205 -9.60999ZM-9.16454 -9.48301C-8.76784 -6.38416 -6.16033 -3.97809 -2.97285 -3.89786L-2.92253 -5.89723C-5.11293 -5.95236 -6.9081 -7.60731 -7.18073 -9.73696L-9.16454 -9.48301ZM-3.94769 -4.89754V-0.736113H-1.94769V-4.89754H-3.94769ZM-2.94769 0.263887H0.79784V-1.73611H-2.94769V0.263887ZM-0.201843 -0.761271C-0.203215 -0.706814 -0.203903 -0.652204 -0.203903 -0.597452H1.7961C1.7961 -0.635417 1.79657 -0.673252 1.79752 -0.710954L-0.201843 -0.761271ZM-0.203903 -0.597452C-0.203903 2.9414 2.6649 5.81022 6.20376 5.81022V3.81022C3.76947 3.81022 1.7961 1.83684 1.7961 -0.597452H-0.203903ZM7.20376 8.97018V4.81022H5.20376V8.97018H7.20376ZM1.79752 14.2643C1.85751 11.8827 3.80744 9.97018 6.20376 9.97018V7.97018C2.71973 7.97018 -0.114611 10.7505 -0.201843 14.2139L1.79752 14.2643ZM-2.94769 15.2391H0.79784V13.2391H-2.94769V15.2391ZM-1.94769 17.2914V14.2391H-3.94769V17.2914H-1.94769ZM-7.21669 22.6973C-7.21669 20.3009 -5.30408 18.351 -2.92253 18.291L-2.97285 16.2917C-6.43627 16.3789 -9.21669 19.2132 -9.21669 22.6973H-7.21669ZM-7.18074 23.2637C-7.20442 23.0787 -7.21669 22.8897 -7.21669 22.6973H-9.21669C-9.21669 22.9748 -9.19899 23.2486 -9.16456 23.5176L-7.18074 23.2637ZM-12.4205 24.3907H-8.17265V22.3907H-12.4205V24.3907ZM-13.3764 22.6973C-13.3764 22.8897 -13.3887 23.0787 -13.4124 23.2637L-11.4285 23.5176C-11.3941 23.2486 -11.3764 22.9748 -11.3764 22.6973H-13.3764ZM-17.7841 18.2896C-15.3498 18.2896 -13.3764 20.263 -13.3764 22.6973H-11.3764C-11.3764 19.1584 -14.2452 16.2896 -17.7841 16.2896V18.2896ZM-17.8976 18.291C-17.8599 18.2901 -17.822 18.2896 -17.7841 18.2896V16.2896C-17.8388 16.2896 -17.8934 16.2903 -17.9479 16.2917L-17.8976 18.291ZM-18.9227 14.2391V17.2914H-16.9227V14.2391H-18.9227ZM-21.3909 15.2391H-17.9227V13.2391H-21.3909V15.2391ZM-26.7969 9.97018C-24.4005 9.97018 -22.4506 11.8827 -22.3906 14.2643L-20.3912 14.2139C-20.4785 10.7505 -23.3128 7.97018 -26.7969 7.97018V9.97018ZM-26.7969 9.97018H-26.7969V7.97018H-26.7969V9.97018ZM-27.7969 4.81022V8.97018H-25.7969V4.81022H-27.7969ZM-26.7969 3.81022H-26.7969V5.81022H-26.7969V3.81022ZM-22.3892 -0.59745C-22.3892 1.83684 -24.3626 3.81022 -26.7969 3.81022V5.81022C-23.258 5.81022 -20.3892 2.94141 -20.3892 -0.59745H-22.3892ZM-22.3906 -0.710954C-22.3897 -0.673253 -22.3892 -0.635417 -22.3892 -0.59745H-20.3892C-20.3892 -0.652204 -20.3899 -0.706813 -20.3912 -0.761271L-22.3906 -0.710954ZM-17.9227 -1.73611H-21.3909V0.263887H-17.9227V-1.73611ZM-18.9227 -4.89754V-0.736113H-16.9227V-4.89754H-18.9227ZM-17.7841 -5.8958C-17.822 -5.8958 -17.8599 -5.89628 -17.8976 -5.89723L-17.9479 -3.89786C-17.8934 -3.89649 -17.8388 -3.8958 -17.7841 -3.8958V-5.8958ZM-13.4124 -9.73696C-13.6897 -7.57064 -15.5421 -5.8958 -17.7841 -5.8958V-3.8958C-14.5229 -3.8958 -11.832 -6.33122 -11.4286 -9.48301L-13.4124 -9.73696ZM-8.17263 -10.61H-12.4205V-8.60999H-8.17263V-10.61Z" fill="#8B0304" mask="url(#path-25-inside-12)"/>
<mask id="path-27-inside-13" fill="white">
<path fill-rule="evenodd" clip-rule="evenodd" d="M42.6183 17.6094C42.7651 18.7555 43.7302 19.6457 44.909 19.6754V21.5001H46.5512C46.5506 21.5202 46.5504 21.5405 46.5504 21.5608C46.5504 22.8702 47.6118 23.9316 48.9212 23.9316C48.9212 23.9316 48.9212 23.9316 48.9212 23.9316V25.7554H48.9212C47.6321 25.7554 46.5833 26.7842 46.5512 28.0655H44.909V29.4035C43.6278 29.4358 42.599 30.4845 42.599 31.7736C42.599 31.8765 42.6056 31.978 42.6183 32.0775H40.756C40.7688 31.978 40.7753 31.8765 40.7753 31.7736C40.7753 30.4642 39.7139 29.4027 38.4045 29.4027C38.3842 29.4027 38.3639 29.403 38.3437 29.4035V28.0655H36.8232C36.791 26.7842 35.7422 25.7554 34.4531 25.7554V23.9316C35.7625 23.9316 36.8239 22.8702 36.8239 21.5608C36.8239 21.5405 36.8237 21.5202 36.8232 21.5001H38.3437V19.6754C38.3639 19.6759 38.3842 19.6762 38.4045 19.6762C39.6109 19.6762 40.6068 18.7752 40.756 17.6094H42.6183Z"/>
</mask>
<path fill-rule="evenodd" clip-rule="evenodd" d="M42.6183 17.6094C42.7651 18.7555 43.7302 19.6457 44.909 19.6754V21.5001H46.5512C46.5506 21.5202 46.5504 21.5405 46.5504 21.5608C46.5504 22.8702 47.6118 23.9316 48.9212 23.9316C48.9212 23.9316 48.9212 23.9316 48.9212 23.9316V25.7554H48.9212C47.6321 25.7554 46.5833 26.7842 46.5512 28.0655H44.909V29.4035C43.6278 29.4358 42.599 30.4845 42.599 31.7736C42.599 31.8765 42.6056 31.978 42.6183 32.0775H40.756C40.7688 31.978 40.7753 31.8765 40.7753 31.7736C40.7753 30.4642 39.7139 29.4027 38.4045 29.4027C38.3842 29.4027 38.3639 29.403 38.3437 29.4035V28.0655H36.8232C36.791 26.7842 35.7422 25.7554 34.4531 25.7554V23.9316C35.7625 23.9316 36.8239 22.8702 36.8239 21.5608C36.8239 21.5405 36.8237 21.5202 36.8232 21.5001H38.3437V19.6754C38.3639 19.6759 38.3842 19.6762 38.4045 19.6762C39.6109 19.6762 40.6068 18.7752 40.756 17.6094H42.6183Z" fill="#EFBFBF"/>
<path d="M42.6183 17.6094L43.6103 17.4824L43.4985 16.6094H42.6183V17.6094ZM44.909 19.6754H45.909V18.7003L44.9342 18.6757L44.909 19.6754ZM44.909 21.5001H43.909V22.5001H44.909V21.5001ZM46.5512 21.5001L47.5508 21.5252L47.5766 20.5001H46.5512V21.5001ZM46.5504 21.5608L47.5504 21.5608V21.5608H46.5504ZM48.9212 23.9316H49.9212V22.9316H48.9212V23.9316ZM48.9212 25.7554V26.7554H49.9212V25.7554H48.9212ZM46.5512 28.0655V29.0655H47.5263L47.5508 28.0906L46.5512 28.0655ZM44.909 28.0655V27.0655H43.909V28.0655H44.909ZM44.909 29.4035L44.9342 30.4032L45.909 30.3786V29.4035H44.909ZM42.6183 32.0775V33.0775H43.7545L43.6102 31.9505L42.6183 32.0775ZM40.756 32.0775L39.7641 31.9505L39.6199 33.0775H40.756V32.0775ZM38.3437 29.4035H37.3437V30.429L38.3689 30.4032L38.3437 29.4035ZM38.3437 28.0655H39.3437V27.0655H38.3437V28.0655ZM36.8232 28.0655L35.8235 28.0906L35.848 29.0655H36.8232V28.0655ZM34.4531 25.7554H33.4531V26.7554H34.4531V25.7554ZM34.4531 23.9316V22.9316H33.4531V23.9316H34.4531ZM36.8232 21.5001V20.5001H35.7977L35.8235 21.5252L36.8232 21.5001ZM38.3437 21.5001V22.5001H39.3437V21.5001H38.3437ZM38.3437 19.6754L38.3688 18.6757L37.3437 18.65V19.6754H38.3437ZM40.756 17.6094V16.6094H39.8759L39.7641 17.4824L40.756 17.6094ZM41.6264 17.7363C41.8352 19.3671 43.2064 20.6329 44.8839 20.6751L44.9342 18.6757C44.2539 18.6586 43.6949 18.144 43.6103 17.4824L41.6264 17.7363ZM43.909 19.6754V21.5001H45.909V19.6754H43.909ZM44.909 22.5001H46.5512V20.5001H44.909V22.5001ZM45.5515 21.4749C45.5507 21.5035 45.5504 21.5321 45.5504 21.5608H47.5504C47.5504 21.5489 47.5505 21.537 47.5508 21.5252L45.5515 21.4749ZM45.5504 21.5608C45.5504 23.4225 47.0596 24.9316 48.9212 24.9316V22.9316C48.1641 22.9316 47.5504 22.3179 47.5504 21.5608L45.5504 21.5608ZM48.9212 24.9316C48.9212 24.9316 48.9212 24.9316 48.9212 24.9316C48.9212 24.9316 48.9212 24.9316 48.9212 24.9316C48.9212 24.9316 48.9212 24.9316 48.9212 24.9316C48.9212 24.9316 48.9212 24.9316 48.9212 24.9316C48.9212 24.9316 48.9212 24.9316 48.9212 24.9316C48.9212 24.9316 48.9212 24.9316 48.9212 24.9316H48.9212H48.9212H48.9212H48.9212C48.9212 24.9316 48.9212 24.9316 48.9212 24.9316C48.9212 24.9316 48.9212 24.9316 48.9212 24.9316C48.9212 24.9316 48.9212 24.9316 48.9212 24.9316C48.9212 24.9316 48.9212 24.9316 48.9212 24.9316C48.9212 24.9316 48.9212 24.9316 48.9212 24.9316C48.9212 24.9316 48.9212 24.9316 48.9212 24.9316V22.9316C48.9212 22.9316 48.9212 22.9316 48.9212 22.9316C48.9212 22.9316 48.9212 22.9316 48.9212 22.9316C48.9212 22.9316 48.9212 22.9316 48.9212 22.9316C48.9212 22.9316 48.9212 22.9316 48.9212 22.9316C48.9212 22.9316 48.9212 22.9316 48.9212 22.9316C48.9212 22.9316 48.9212 22.9316 48.9212 22.9316H48.9212H48.9212H48.9212H48.9212C48.9212 22.9316 48.9212 22.9316 48.9212 22.9316C48.9212 22.9316 48.9212 22.9316 48.9212 22.9316C48.9212 22.9316 48.9212 22.9316 48.9212 22.9316C48.9212 22.9316 48.9212 22.9316 48.9212 22.9316C48.9212 22.9316 48.9212 22.9316 48.9212 22.9316C48.9212 22.9316 48.9212 22.9316 48.9212 22.9316V24.9316ZM47.9212 23.9316V25.7554H49.9212V23.9316H47.9212ZM48.9212 24.7554H48.9212V26.7554H48.9212V24.7554ZM48.9212 24.7554C47.0883 24.7554 45.5972 26.2181 45.5515 28.0404L47.5508 28.0906C47.5694 27.3502 48.176 26.7554 48.9212 26.7554V24.7554ZM46.5512 27.0655H44.909V29.0655H46.5512V27.0655ZM43.909 28.0655V29.4035H45.909V28.0655H43.909ZM44.8839 28.4038C43.0617 28.4497 41.599 29.9407 41.599 31.7736H43.599C43.599 31.0284 44.1939 30.4218 44.9342 30.4032L44.8839 28.4038ZM41.599 31.7736C41.599 31.9191 41.6083 32.0629 41.6264 32.2044L43.6102 31.9505C43.6029 31.893 43.599 31.834 43.599 31.7736H41.599ZM42.6183 31.0775H40.756V33.0775H42.6183V31.0775ZM41.7479 32.2044C41.766 32.0629 41.7753 31.9191 41.7753 31.7736H39.7753C39.7753 31.834 39.7715 31.893 39.7641 31.9505L41.7479 32.2044ZM41.7753 31.7736C41.7753 29.9119 40.2662 28.4027 38.4045 28.4027V30.4027C39.1616 30.4027 39.7753 31.0165 39.7753 31.7736H41.7753ZM38.4045 28.4027C38.3758 28.4027 38.3471 28.4031 38.3185 28.4038L38.3689 30.4032C38.3807 30.4029 38.3926 30.4027 38.4045 30.4027V28.4027ZM39.3437 29.4035V28.0655H37.3437V29.4035H39.3437ZM38.3437 27.0655H36.8232V29.0655H38.3437V27.0655ZM37.8229 28.0404C37.7771 26.2181 36.2861 24.7554 34.4531 24.7554V26.7554C35.1983 26.7554 35.8049 27.3502 35.8235 28.0906L37.8229 28.0404ZM35.4531 25.7554V23.9316H33.4531V25.7554H35.4531ZM34.4531 24.9316C36.3148 24.9316 37.8239 23.4225 37.8239 21.5608H35.8239C35.8239 22.3179 35.2102 22.9316 34.4531 22.9316V24.9316ZM37.8239 21.5608C37.8239 21.5321 37.8236 21.5035 37.8229 21.4749L35.8235 21.5252C35.8238 21.537 35.8239 21.5489 35.8239 21.5608H37.8239ZM36.8232 22.5001H38.3437V20.5001H36.8232V22.5001ZM39.3437 21.5001V19.6754H37.3437V21.5001H39.3437ZM38.3185 20.6751C38.3471 20.6758 38.3758 20.6762 38.4045 20.6762V18.6762C38.3926 18.6762 38.3807 18.676 38.3688 18.6757L38.3185 20.6751ZM38.4045 20.6762C40.1205 20.6762 41.5356 19.3949 41.7479 17.7363L39.7641 17.4824C39.678 18.1555 39.1013 18.6762 38.4045 18.6762V20.6762ZM40.756 18.6094H42.6183V16.6094H40.756V18.6094Z" fill="#8B0304" mask="url(#path-27-inside-13)"/>
<mask id="path-29-inside-14" fill="white">
<path fill-rule="evenodd" clip-rule="evenodd" d="M8.16524 17.6094C8.31195 18.7555 9.27706 19.6457 10.4559 19.6754V21.5001H12.0981C12.0975 21.5202 12.0973 21.5405 12.0973 21.5608C12.0973 22.8702 13.1587 23.9316 14.4681 23.9316V25.7554C13.179 25.7554 12.1302 26.7842 12.098 28.0655H10.4559V29.4035C9.17468 29.4358 8.14593 30.4845 8.14593 31.7736C8.14593 31.8765 8.1525 31.978 8.16523 32.0775H6.3029C6.31563 31.978 6.3222 31.8765 6.3222 31.7736C6.3222 30.4642 5.26074 29.4027 3.95137 29.4027C3.93106 29.4027 3.9108 29.403 3.8906 29.4035V28.0655H2.37009C2.3379 26.7842 1.28911 25.7554 2.47955e-05 25.7554H0V23.9316H2.47955e-05C1.30939 23.9316 2.37085 22.8702 2.37085 21.5608C2.37085 21.5405 2.37059 21.5202 2.37009 21.5001H3.8906V19.6754C3.9108 19.6759 3.93106 19.6762 3.95137 19.6762C5.15774 19.6762 6.15367 18.7752 6.30289 17.6094H8.16524Z"/>
</mask>
<path fill-rule="evenodd" clip-rule="evenodd" d="M8.16524 17.6094C8.31195 18.7555 9.27706 19.6457 10.4559 19.6754V21.5001H12.0981C12.0975 21.5202 12.0973 21.5405 12.0973 21.5608C12.0973 22.8702 13.1587 23.9316 14.4681 23.9316V25.7554C13.179 25.7554 12.1302 26.7842 12.098 28.0655H10.4559V29.4035C9.17468 29.4358 8.14593 30.4845 8.14593 31.7736C8.14593 31.8765 8.1525 31.978 8.16523 32.0775H6.3029C6.31563 31.978 6.3222 31.8765 6.3222 31.7736C6.3222 30.4642 5.26074 29.4027 3.95137 29.4027C3.93106 29.4027 3.9108 29.403 3.8906 29.4035V28.0655H2.37009C2.3379 26.7842 1.28911 25.7554 2.47955e-05 25.7554H0V23.9316H2.47955e-05C1.30939 23.9316 2.37085 22.8702 2.37085 21.5608C2.37085 21.5405 2.37059 21.5202 2.37009 21.5001H3.8906V19.6754C3.9108 19.6759 3.93106 19.6762 3.95137 19.6762C5.15774 19.6762 6.15367 18.7752 6.30289 17.6094H8.16524Z" fill="#EFBFBF"/>
<path d="M8.16524 17.6094L9.15715 17.4824L9.0454 16.6094H8.16524V17.6094ZM10.4559 19.6754H11.4559V18.7003L10.4811 18.6757L10.4559 19.6754ZM10.4559 21.5001H9.45594V22.5001H10.4559V21.5001ZM12.0981 21.5001L13.0977 21.5252L13.1235 20.5001H12.0981V21.5001ZM14.4681 23.9316H15.4681V22.9316L14.4681 22.9316L14.4681 23.9316ZM14.4681 25.7554L14.4681 26.7554L15.4681 26.7554V25.7554H14.4681ZM12.098 28.0655V29.0655H13.0732L13.0977 28.0906L12.098 28.0655ZM10.4559 28.0655V27.0655H9.45594V28.0655H10.4559ZM10.4559 29.4035L10.4811 30.4032L11.4559 30.3786V29.4035H10.4559ZM8.16523 32.0775V33.0775H9.30136L9.15714 31.9505L8.16523 32.0775ZM6.3029 32.0775L5.31099 31.9505L5.16678 33.0775H6.3029V32.0775ZM3.8906 29.4035H2.8906V30.429L3.91576 30.4032L3.8906 29.4035ZM3.8906 28.0655H4.8906V27.0655H3.8906V28.0655ZM2.37009 28.0655L1.3704 28.0906L1.39489 29.0655H2.37009V28.0655ZM0 25.7554H-1V26.7554H0V25.7554ZM0 23.9316V22.9316H-1V23.9316H0ZM2.37009 21.5001V20.5001H1.34463L1.3704 21.5252L2.37009 21.5001ZM3.8906 21.5001V22.5001H4.8906V21.5001H3.8906ZM3.8906 19.6754L3.91576 18.6757L2.8906 18.6499V19.6754H3.8906ZM6.30289 17.6094V16.6094H5.42273L5.31098 17.4824L6.30289 17.6094ZM7.17334 17.7363C7.38207 19.3671 8.75334 20.6329 10.4308 20.6751L10.4811 18.6757C9.80077 18.6586 9.24183 18.144 9.15715 17.4824L7.17334 17.7363ZM9.45594 19.6754V21.5001H11.4559V19.6754H9.45594ZM10.4559 22.5001H12.0981V20.5001H10.4559V22.5001ZM11.0984 21.4749C11.0976 21.5035 11.0973 21.5321 11.0973 21.5608H13.0973C13.0973 21.5489 13.0974 21.537 13.0977 21.5252L11.0984 21.4749ZM11.0973 21.5608C11.0973 23.4224 12.6065 24.9316 14.4681 24.9316L14.4681 22.9316C13.711 22.9316 13.0973 22.3179 13.0973 21.5608H11.0973ZM15.4681 25.7554V23.9316H13.4681V25.7554H15.4681ZM13.0977 28.0906C13.1163 27.3502 13.7229 26.7554 14.4681 26.7554L14.4681 24.7554C12.6351 24.7554 11.1441 26.2181 11.0984 28.0404L13.0977 28.0906ZM10.4559 29.0655H12.098V27.0655H10.4559V29.0655ZM11.4559 29.4035V28.0655H9.45594V29.4035H11.4559ZM9.14593 31.7736C9.14593 31.0284 9.74078 30.4218 10.4811 30.4032L10.4308 28.4038C8.60857 28.4497 7.14593 29.9407 7.14593 31.7736H9.14593ZM9.15714 31.9505C9.14978 31.893 9.14593 31.834 9.14593 31.7736H7.14593C7.14593 31.9191 7.15521 32.0629 7.17332 32.2044L9.15714 31.9505ZM6.3029 33.0775H8.16523V31.0775H6.3029V33.0775ZM5.3222 31.7736C5.3222 31.834 5.31835 31.893 5.31099 31.9505L7.29481 32.2044C7.31292 32.0629 7.3222 31.9191 7.3222 31.7736H5.3222ZM3.95137 30.4027C4.70846 30.4027 5.3222 31.0165 5.3222 31.7736H7.3222C7.3222 29.9119 5.81303 28.4027 3.95137 28.4027V30.4027ZM3.91576 30.4032C3.92757 30.4029 3.93944 30.4027 3.95137 30.4027V28.4027C3.92267 28.4027 3.89402 28.4031 3.86544 28.4038L3.91576 30.4032ZM2.8906 28.0655V29.4035H4.8906V28.0655H2.8906ZM2.37009 29.0655H3.8906V27.0655H2.37009V29.0655ZM2.47955e-05 26.7554C0.745235 26.7554 1.3518 27.3502 1.3704 28.0906L3.36977 28.0404C3.32399 26.2181 1.83298 24.7554 2.47955e-05 24.7554V26.7554ZM0 26.7554H2.47955e-05V24.7554H0V26.7554ZM-1 23.9316V25.7554H1V23.9316H-1ZM2.47955e-05 22.9316H0V24.9316H2.47955e-05V22.9316ZM1.37085 21.5608C1.37085 22.3179 0.75711 22.9316 2.47955e-05 22.9316V24.9316C1.86168 24.9316 3.37085 23.4225 3.37085 21.5608H1.37085ZM1.3704 21.5252C1.3707 21.537 1.37085 21.5489 1.37085 21.5608H3.37085C3.37085 21.5321 3.37049 21.5035 3.36977 21.4749L1.3704 21.5252ZM3.8906 20.5001H2.37009V22.5001H3.8906V20.5001ZM2.8906 19.6754V21.5001H4.8906V19.6754H2.8906ZM3.95137 18.6762C3.93944 18.6762 3.92757 18.676 3.91576 18.6757L3.86544 20.6751C3.89402 20.6758 3.92267 20.6762 3.95137 20.6762V18.6762ZM5.31098 17.4824C5.22483 18.1555 4.64813 18.6762 3.95137 18.6762V20.6762C5.66736 20.6762 7.0825 19.3949 7.2948 17.7363L5.31098 17.4824ZM8.16524 16.6094H6.30289V18.6094H8.16524V16.6094Z" fill="#8B0304" mask="url(#path-29-inside-14)"/>
<mask id="path-31-inside-15" fill="white">
<path fill-rule="evenodd" clip-rule="evenodd" d="M62.2649 25.6094C62.5996 28.2236 64.8009 30.2541 67.4899 30.3218V34.4834H71.2354C71.2342 34.5294 71.2336 34.5756 71.2336 34.6219C71.2336 37.6084 73.6547 40.0295 76.6413 40.0295L76.6413 44.1896C73.701 44.1896 71.3089 46.5362 71.2354 49.4587H67.4898V52.5108C64.5674 52.5844 62.2208 54.9765 62.2208 57.9167C62.2208 58.1516 62.2358 58.383 62.2649 58.61H58.017C58.0461 58.383 58.0611 58.1516 58.0611 57.9167C58.0611 54.9301 55.64 52.5091 52.6534 52.5091C52.607 52.5091 52.5608 52.5096 52.5147 52.5108V49.4587H49.0466C48.973 46.5362 46.5809 44.1896 43.6406 44.1896L43.6406 40.0295C46.6272 40.0295 49.0483 37.6084 49.0483 34.6219C49.0483 34.5756 49.0477 34.5294 49.0466 34.4834H52.5147V30.3218C52.5608 30.3229 52.607 30.3235 52.6534 30.3235C55.405 30.3235 57.6766 28.2684 58.017 25.6094H62.2649Z"/>
</mask>
<path fill-rule="evenodd" clip-rule="evenodd" d="M62.2649 25.6094C62.5996 28.2236 64.8009 30.2541 67.4899 30.3218V34.4834H71.2354C71.2342 34.5294 71.2336 34.5756 71.2336 34.6219C71.2336 37.6084 73.6547 40.0295 76.6413 40.0295L76.6413 44.1896C73.701 44.1896 71.3089 46.5362 71.2354 49.4587H67.4898V52.5108C64.5674 52.5844 62.2208 54.9765 62.2208 57.9167C62.2208 58.1516 62.2358 58.383 62.2649 58.61H58.017C58.0461 58.383 58.0611 58.1516 58.0611 57.9167C58.0611 54.9301 55.64 52.5091 52.6534 52.5091C52.607 52.5091 52.5608 52.5096 52.5147 52.5108V49.4587H49.0466C48.973 46.5362 46.5809 44.1896 43.6406 44.1896L43.6406 40.0295C46.6272 40.0295 49.0483 37.6084 49.0483 34.6219C49.0483 34.5756 49.0477 34.5294 49.0466 34.4834H52.5147V30.3218C52.5608 30.3229 52.607 30.3235 52.6534 30.3235C55.405 30.3235 57.6766 28.2684 58.017 25.6094H62.2649Z" fill="white"/>
<path d="M62.2649 25.6094L63.2568 25.4824L63.1451 24.6094H62.2649V25.6094ZM67.4899 30.3218H68.4899V29.3466L67.515 29.3221L67.4899 30.3218ZM67.4899 34.4834H66.4899V35.4834H67.4899V34.4834ZM71.2354 34.4834L72.2351 34.5085L72.2608 33.4834H71.2354V34.4834ZM76.6413 40.0295L77.6413 40.0295L77.6413 39.0295H76.6413V40.0295ZM76.6413 44.1896V45.1896H77.6413L77.6413 44.1896L76.6413 44.1896ZM71.2354 49.4587V50.4587H72.2105L72.2351 49.4838L71.2354 49.4587ZM67.4898 49.4587V48.4587H66.4898V49.4587H67.4898ZM67.4898 52.5108L67.515 53.5105L68.4898 53.4859V52.5108H67.4898ZM62.2649 58.61V59.61H63.401L63.2568 58.4831L62.2649 58.61ZM58.017 58.61L57.0251 58.4831L56.8809 59.61H58.017V58.61ZM52.5147 52.5108H51.5147V53.5363L52.5399 53.5105L52.5147 52.5108ZM52.5147 49.4587H53.5147V48.4587H52.5147V49.4587ZM49.0466 49.4587L48.0469 49.4838L48.0714 50.4587H49.0466V49.4587ZM43.6406 44.1896L42.6406 44.1896L42.6406 45.1896H43.6406V44.1896ZM43.6406 40.0295V39.0295H42.6406L42.6406 40.0295L43.6406 40.0295ZM49.0466 34.4834V33.4834H48.0211L48.0469 34.5085L49.0466 34.4834ZM52.5147 34.4834V35.4834H53.5147V34.4834H52.5147ZM52.5147 30.3218L52.5399 29.3221L51.5147 29.2963V30.3218H52.5147ZM58.017 25.6094V24.6094H57.1369L57.0251 25.4824L58.017 25.6094ZM61.273 25.7364C61.6697 28.8352 64.2772 31.2412 67.4647 31.3215L67.515 29.3221C65.3246 29.267 63.5295 27.612 63.2568 25.4824L61.273 25.7364ZM66.4899 30.3218V34.4834H68.4899V30.3218H66.4899ZM67.4899 35.4834H71.2354V33.4834H67.4899V35.4834ZM70.2357 34.4583C70.2343 34.5127 70.2336 34.5672 70.2336 34.6219H72.2336C72.2336 34.584 72.2341 34.5462 72.2351 34.5085L70.2357 34.4583ZM70.2336 34.6219C70.2336 38.1607 73.1024 41.0295 76.6413 41.0295V39.0295C74.207 39.0295 72.2336 37.0562 72.2336 34.6219H70.2336ZM77.6413 44.1896L77.6413 40.0295L75.6413 40.0295L75.6413 44.1896L77.6413 44.1896ZM72.2351 49.4838C72.295 47.1023 74.2449 45.1896 76.6413 45.1896V43.1896C73.1572 43.1896 70.3228 45.9701 70.2357 49.4336L72.2351 49.4838ZM67.4898 50.4587H71.2354V48.4587H67.4898V50.4587ZM68.4898 52.5108V49.4587H66.4898V52.5108H68.4898ZM63.2208 57.9167C63.2208 55.5204 65.1335 53.5704 67.515 53.5105L67.4647 51.5111C64.0013 51.5983 61.2208 54.4327 61.2208 57.9167H63.2208ZM63.2568 58.4831C63.2331 58.2981 63.2208 58.1091 63.2208 57.9167H61.2208C61.2208 58.1942 61.2385 58.468 61.273 58.737L63.2568 58.4831ZM58.017 59.61H62.2649V57.61H58.017V59.61ZM57.0611 57.9167C57.0611 58.1091 57.0488 58.2981 57.0251 58.4831L59.009 58.737C59.0434 58.468 59.0611 58.1942 59.0611 57.9167H57.0611ZM52.6534 53.5091C55.0877 53.5091 57.0611 55.4824 57.0611 57.9167H59.0611C59.0611 54.3779 56.1923 51.5091 52.6534 51.5091V53.5091ZM52.5399 53.5105C52.5776 53.5095 52.6154 53.5091 52.6534 53.5091V51.5091C52.5986 51.5091 52.544 51.5097 52.4896 51.5111L52.5399 53.5105ZM51.5147 49.4587V52.5108H53.5147V49.4587H51.5147ZM49.0466 50.4587H52.5147V48.4587H49.0466V50.4587ZM43.6406 45.1896C46.037 45.1896 47.987 47.1023 48.0469 49.4838L50.0462 49.4336C49.9591 45.9701 47.1247 43.1896 43.6406 43.1896V45.1896ZM42.6406 40.0295L42.6406 44.1896L44.6406 44.1896L44.6406 40.0295L42.6406 40.0295ZM48.0483 34.6219C48.0483 37.0562 46.0749 39.0295 43.6406 39.0295V41.0295C47.1795 41.0295 50.0483 38.1607 50.0483 34.6219H48.0483ZM48.0469 34.5085C48.0478 34.5462 48.0483 34.584 48.0483 34.6219H50.0483C50.0483 34.5672 50.0476 34.5127 50.0462 34.4583L48.0469 34.5085ZM52.5147 33.4834H49.0466V35.4834H52.5147V33.4834ZM51.5147 30.3218V34.4834H53.5147V30.3218H51.5147ZM52.6534 29.3235C52.6154 29.3235 52.5776 29.323 52.5399 29.3221L52.4896 31.3215C52.544 31.3228 52.5986 31.3235 52.6534 31.3235V29.3235ZM57.0251 25.4824C56.7478 27.6487 54.8954 29.3235 52.6534 29.3235V31.3235C55.9146 31.3235 58.6054 28.8881 59.0089 25.7364L57.0251 25.4824ZM62.2649 24.6094H58.017V26.6094H62.2649V24.6094Z" fill="#8B0304" mask="url(#path-31-inside-15)"/>
<mask id="path-33-inside-16" fill="white">
<path fill-rule="evenodd" clip-rule="evenodd" d="M-8.93826 25.6094C-8.60358 28.2236 -6.40225 30.2541 -3.71332 30.3218V34.4834H0.0321999C0.031044 34.5294 0.0304623 34.5756 0.0304623 34.6219C0.0304623 37.6084 2.45156 40.0295 5.43813 40.0295L5.43814 44.1896C2.4979 44.1896 0.105724 46.5362 0.0322113 49.4587H-3.71331V52.5108C-6.6358 52.5844 -8.98231 54.9765 -8.98231 57.9167C-8.98231 58.1516 -8.96733 58.383 -8.93828 58.61H-13.1861C-13.157 58.383 -13.142 58.1516 -13.142 57.9167C-13.142 54.9301 -15.5631 52.5091 -18.5497 52.5091C-18.5961 52.5091 -18.6423 52.5096 -18.6884 52.5108V49.4587H-22.1566C-22.2301 46.5362 -24.6222 44.1896 -27.5625 44.1896H-27.5625V40.0295H-27.5625C-24.5759 40.0295 -22.1548 37.6084 -22.1548 34.6219C-22.1548 34.5756 -22.1554 34.5294 -22.1566 34.4834H-18.6884V30.3218C-18.6423 30.3229 -18.5961 30.3235 -18.5497 30.3235C-15.7981 30.3235 -13.5265 28.2684 -13.1861 25.6094H-8.93826Z"/>
</mask>
<path fill-rule="evenodd" clip-rule="evenodd" d="M-8.93826 25.6094C-8.60358 28.2236 -6.40225 30.2541 -3.71332 30.3218V34.4834H0.0321999C0.031044 34.5294 0.0304623 34.5756 0.0304623 34.6219C0.0304623 37.6084 2.45156 40.0295 5.43813 40.0295L5.43814 44.1896C2.4979 44.1896 0.105724 46.5362 0.0322113 49.4587H-3.71331V52.5108C-6.6358 52.5844 -8.98231 54.9765 -8.98231 57.9167C-8.98231 58.1516 -8.96733 58.383 -8.93828 58.61H-13.1861C-13.157 58.383 -13.142 58.1516 -13.142 57.9167C-13.142 54.9301 -15.5631 52.5091 -18.5497 52.5091C-18.5961 52.5091 -18.6423 52.5096 -18.6884 52.5108V49.4587H-22.1566C-22.2301 46.5362 -24.6222 44.1896 -27.5625 44.1896H-27.5625V40.0295H-27.5625C-24.5759 40.0295 -22.1548 37.6084 -22.1548 34.6219C-22.1548 34.5756 -22.1554 34.5294 -22.1566 34.4834H-18.6884V30.3218C-18.6423 30.3229 -18.5961 30.3235 -18.5497 30.3235C-15.7981 30.3235 -13.5265 28.2684 -13.1861 25.6094H-8.93826Z" fill="white"/>
<path d="M-8.93826 25.6094L-7.94636 25.4824L-8.05812 24.6094H-8.93826V25.6094ZM-3.71332 30.3218H-2.71332V29.3466L-3.68816 29.3221L-3.71332 30.3218ZM-3.71332 34.4834H-4.71332V35.4834H-3.71332V34.4834ZM0.0321999 34.4834L1.03188 34.5085L1.05763 33.4834H0.0321999V34.4834ZM5.43813 40.0295L6.43813 40.0295L6.43813 39.0295H5.43813V40.0295ZM5.43814 44.1896V45.1896H6.43814V44.1896L5.43814 44.1896ZM0.0322113 49.4587V50.4587H1.00737L1.03189 49.4838L0.0322113 49.4587ZM-3.71331 49.4587V48.4587H-4.71331V49.4587H-3.71331ZM-3.71331 52.5108L-3.68815 53.5105L-2.71331 53.4859V52.5108H-3.71331ZM-8.93828 58.61V59.61H-7.80215L-7.94637 58.4831L-8.93828 58.61ZM-13.1861 58.61L-14.178 58.4831L-14.3222 59.61H-13.1861V58.61ZM-18.6884 52.5108H-19.6884V53.5363L-18.6632 53.5105L-18.6884 52.5108ZM-18.6884 49.4587H-17.6884V48.4587H-18.6884V49.4587ZM-22.1566 49.4587L-23.1562 49.4838L-23.1317 50.4587H-22.1566V49.4587ZM-27.5625 44.1896H-28.5625V45.1896H-27.5625V44.1896ZM-27.5625 40.0295V39.0295H-28.5625V40.0295H-27.5625ZM-22.1566 34.4834V33.4834H-23.182L-23.1562 34.5085L-22.1566 34.4834ZM-18.6884 34.4834V35.4834H-17.6884V34.4834H-18.6884ZM-18.6884 30.3218L-18.6632 29.3221L-19.6884 29.2963V30.3218H-18.6884ZM-13.1861 25.6094V24.6094H-14.0662L-14.178 25.4824L-13.1861 25.6094ZM-9.93017 25.7364C-9.53345 28.8352 -6.92595 31.2412 -3.73848 31.3215L-3.68816 29.3221C-5.87855 29.267 -7.67372 27.612 -7.94636 25.4824L-9.93017 25.7364ZM-4.71332 30.3218V34.4834H-2.71332V30.3218H-4.71332ZM-3.71332 35.4834H0.0321999V33.4834H-3.71332V35.4834ZM-0.967485 34.4583C-0.968851 34.5127 -0.969538 34.5672 -0.969538 34.6219H1.03046C1.03046 34.584 1.03094 34.5462 1.03188 34.5085L-0.967485 34.4583ZM-0.969538 34.6219C-0.969538 38.1607 1.89927 41.0295 5.43813 41.0295V39.0295C3.00384 39.0295 1.03046 37.0562 1.03046 34.6219H-0.969538ZM6.43814 44.1896L6.43813 40.0295L4.43813 40.0295L4.43814 44.1896L6.43814 44.1896ZM1.03189 49.4838C1.0918 47.1023 3.04176 45.1896 5.43814 45.1896V43.1896C1.95403 43.1896 -0.880354 45.9701 -0.967472 49.4336L1.03189 49.4838ZM-3.71331 50.4587H0.0322113V48.4587H-3.71331V50.4587ZM-2.71331 52.5108V49.4587H-4.71331V52.5108H-2.71331ZM-7.98231 57.9167C-7.98231 55.5204 -6.0697 53.5704 -3.68815 53.5105L-3.73848 51.5111C-7.2019 51.5983 -9.98231 54.4327 -9.98231 57.9167H-7.98231ZM-7.94637 58.4831C-7.97005 58.2981 -7.98231 58.1091 -7.98231 57.9167H-9.98231C-9.98231 58.1942 -9.96462 58.468 -9.93019 58.737L-7.94637 58.4831ZM-13.1861 59.61H-8.93828V57.61H-13.1861V59.61ZM-14.142 57.9167C-14.142 58.1091 -14.1543 58.2981 -14.178 58.4831L-12.1942 58.737C-12.1597 58.468 -12.142 58.1942 -12.142 57.9167H-14.142ZM-18.5497 53.5091C-16.1154 53.5091 -14.142 55.4824 -14.142 57.9167H-12.142C-12.142 54.3779 -15.0108 51.5091 -18.5497 51.5091V53.5091ZM-18.6632 53.5105C-18.6255 53.5095 -18.5877 53.5091 -18.5497 53.5091V51.5091C-18.6045 51.5091 -18.6591 51.5097 -18.7135 51.5111L-18.6632 53.5105ZM-19.6884 49.4587V52.5108H-17.6884V49.4587H-19.6884ZM-22.1566 50.4587H-18.6884V48.4587H-22.1566V50.4587ZM-27.5625 45.1896C-25.1661 45.1896 -23.2161 47.1023 -23.1562 49.4838L-21.1569 49.4336C-21.244 45.9701 -24.0784 43.1896 -27.5625 43.1896V45.1896ZM-27.5625 45.1896H-27.5625V43.1896H-27.5625V45.1896ZM-28.5625 40.0295V44.1896H-26.5625V40.0295H-28.5625ZM-27.5625 39.0295H-27.5625V41.0295H-27.5625V39.0295ZM-23.1548 34.6219C-23.1548 37.0562 -25.1282 39.0295 -27.5625 39.0295V41.0295C-24.0236 41.0295 -21.1548 38.1607 -21.1548 34.6219H-23.1548ZM-23.1562 34.5085C-23.1553 34.5462 -23.1548 34.584 -23.1548 34.6219H-21.1548C-21.1548 34.5672 -21.1555 34.5127 -21.1569 34.4583L-23.1562 34.5085ZM-18.6884 33.4834H-22.1566V35.4834H-18.6884V33.4834ZM-19.6884 30.3218V34.4834H-17.6884V30.3218H-19.6884ZM-18.5497 29.3235C-18.5877 29.3235 -18.6255 29.323 -18.6632 29.3221L-18.7135 31.3215C-18.6591 31.3228 -18.6045 31.3235 -18.5497 31.3235V29.3235ZM-14.178 25.4824C-14.4553 27.6487 -16.3077 29.3235 -18.5497 29.3235V31.3235C-15.2885 31.3235 -12.5977 28.8881 -12.1942 25.7364L-14.178 25.4824ZM-8.93826 24.6094H-13.1861V26.6094H-8.93826V24.6094Z" fill="#8B0304" mask="url(#path-33-inside-16)"/>
</g>
<rect x="0.5" y="0.5" width="48" height="48" stroke="#8B0304"/>
</svg>
