<svg width="49" height="49" viewBox="0 0 49 49" fill="none" xmlns="http://www.w3.org/2000/svg">
<rect width="49" height="49" fill="#EFBFBF"/>
<path d="M43.5 12C43.5 12.4106 43.1653 12.9386 42.2084 13.5187C41.2815 14.0806 39.907 14.6044 38.1644 15.0512C34.6867 15.9429 29.8554 16.5 24.5 16.5C19.1446 16.5 14.3133 15.9429 10.8356 15.0512C9.093 14.6044 7.71849 14.0806 6.79161 13.5187C5.83473 12.9386 5.5 12.4106 5.5 12C5.5 11.5894 5.83473 11.0614 6.79161 10.4813C7.71849 9.91944 9.093 9.39562 10.8356 8.9488C14.3133 8.05709 19.1446 7.5 24.5 7.5C29.8554 7.5 34.6867 8.05709 38.1644 8.9488C39.907 9.39562 41.2815 9.91944 42.2084 10.4813C43.1653 11.0614 43.5 11.5894 43.5 12Z" fill="white" stroke="#8B0304"/>
<path d="M37.5 12C37.5 12.0441 37.4821 12.131 37.3579 12.2659C37.2312 12.4035 37.0203 12.5602 36.7066 12.7251C36.08 13.0543 35.1405 13.3659 33.9375 13.6332C31.5396 14.1661 28.2027 14.5 24.5 14.5C20.7973 14.5 17.4604 14.1661 15.0625 13.6332C13.8595 13.3659 12.92 13.0543 12.2934 12.7251C11.9797 12.5602 11.7688 12.4035 11.6421 12.2659C11.5179 12.131 11.5 12.0441 11.5 12C11.5 11.9559 11.5179 11.869 11.6421 11.7341C11.7688 11.5965 11.9797 11.4398 12.2934 11.2749C12.92 10.9457 13.8595 10.6341 15.0625 10.3668C17.4604 9.8339 20.7973 9.5 24.5 9.5C28.2027 9.5 31.5396 9.8339 33.9375 10.3668C35.1405 10.6341 36.08 10.9457 36.7066 11.2749C37.0203 11.4398 37.2312 11.5965 37.3579 11.7341C37.4821 11.869 37.5 11.9559 37.5 12Z" fill="#EFBFBF" stroke="#8B0304"/>
<mask id="mask0" style="mask-type:alpha" maskUnits="userSpaceOnUse" x="0" y="0" width="49" height="49">
<rect width="49" height="49" fill="#EFBFBF"/>
</mask>
<g mask="url(#mask0)">
<mask id="path-5-inside-1" fill="white">
<path fill-rule="evenodd" clip-rule="evenodd" d="M44 11C44 13.7614 35.2696 16 24.5 16C13.7304 16 5 13.7614 5 11V47V49H6.62257C9.63164 50.7659 16.5038 52 24.5 52C32.4962 52 39.3684 50.7659 42.3774 49H44V47V11Z"/>
</mask>
<path fill-rule="evenodd" clip-rule="evenodd" d="M44 11C44 13.7614 35.2696 16 24.5 16C13.7304 16 5 13.7614 5 11V47V49H6.62257C9.63164 50.7659 16.5038 52 24.5 52C32.4962 52 39.3684 50.7659 42.3774 49H44V47V11Z" fill="white"/>
<path d="M5 49H4V50H5V49ZM6.62257 49L7.12871 48.1375L6.89433 48H6.62257V49ZM42.3774 49V48H42.1057L41.8713 48.1375L42.3774 49ZM44 49V50H45V49H44ZM24.5 17C29.9434 17 34.9058 16.4353 38.537 15.5042C40.345 15.0406 41.8795 14.4721 42.986 13.8014C44.0325 13.1669 45 12.2498 45 11H43C43 11.1309 42.8762 11.5291 41.9492 12.0911C41.0822 12.6167 39.761 13.1256 38.0402 13.5669C34.6137 14.4455 29.8261 15 24.5 15V17ZM4 11C4 12.2498 4.96749 13.1669 6.014 13.8014C7.12049 14.4721 8.65504 15.0406 10.463 15.5042C14.0942 16.4353 19.0566 17 24.5 17V15C19.1739 15 14.3863 14.4455 10.9598 13.5669C9.23899 13.1256 7.91783 12.6167 7.05081 12.0911C6.12381 11.5291 6 11.1309 6 11H4ZM6 47V11H4V47H6ZM6 49V47H4V49H6ZM6.62257 48H5V50H6.62257V48ZM24.5 51C20.5501 51 16.8901 50.695 13.8597 50.1765C10.8027 49.6535 8.47554 48.9279 7.12871 48.1375L6.11643 49.8625C7.77867 50.838 10.3921 51.6124 13.5225 52.1479C16.6795 52.688 20.4536 53 24.5 53V51ZM41.8713 48.1375C40.5245 48.9279 38.1973 49.6535 35.1403 50.1765C32.1099 50.695 28.4499 51 24.5 51V53C28.5464 53 32.3205 52.688 35.4775 52.1479C38.6079 51.6124 41.2213 50.838 42.8836 49.8625L41.8713 48.1375ZM44 48H42.3774V50H44V48ZM43 47V49H45V47H43ZM43 11V47H45V11H43Z" fill="#8B0304" mask="url(#path-5-inside-1)"/>
</g>
<rect x="0.5" y="0.5" width="48" height="48" stroke="#8B0304"/>
<path d="M43.5 39C43.5 40.6569 35.2696 42.5 24.5 42.5C13.7304 42.5 5.5 40.6569 5.5 39" stroke="#8B0304"/>
<path d="M43.5 25C43.5 26.6569 35.2696 28.5 24.5 28.5C13.7304 28.5 5.5 26.6569 5.5 25" stroke="#8B0304"/>
</svg>
