<svg width="49" height="49" viewBox="0 0 49 49" fill="none" xmlns="http://www.w3.org/2000/svg">
<rect x="0.5" y="0.5" width="48" height="48" stroke="#8B0304"/>
<path d="M24.6889 42.4629L48.5 32.7441V48.5H0.5V32.7441L24.3111 42.4629L24.5 42.54L24.6889 42.4629Z" fill="#EFBFBF" stroke="#8B0304"/>
<path d="M48.5 0.5L48.5 4.66404L24.5 14.46L0.499999 4.66404L0.499999 0.500004L48.5 0.5Z" fill="#EFBFBF" stroke="#8B0304"/>
<path d="M0.5 32.6615V18.7385L24.5 28.3385V42.2615L0.5 32.6615Z" stroke="#8B0304" stroke-linejoin="bevel"/>
<path d="M24.6857 14.2642L48.5 4.73852V14.6615L24.8143 24.1358L24.6789 24.3358H24.3211L24.1857 24.1358L0.5 14.6615V4.73852L24.3143 14.2642H24.6857Z" stroke="#8B0304" stroke-linejoin="bevel"/>
<path d="M0.5 18.6615V14.7385L24.5 24.3385V28.2615L0.5 18.6615Z" stroke="#8B0304" stroke-linejoin="bevel"/>
<path d="M48.5 18.6615V14.7385L24.5 24.3385V28.2615L48.5 18.6615Z" stroke="#8B0304" stroke-linejoin="bevel"/>
<path d="M48.5 32.6615V18.7385L24.5 28.3385V42.2615L48.5 32.6615Z" stroke="#8B0304" stroke-linejoin="bevel"/>
</svg>
