<svg width="491" height="865" viewBox="0 0 491 865" fill="none" xmlns="http://www.w3.org/2000/svg">
<path d="M475.224 224.901L345.216 300.526C342.061 302.433 337.643 302.433 334.487 300.526L123.698 177.238C120.542 175.331 116.125 175.331 112.969 177.238L-73.2073 285.274C-76.3628 287.181 -80.1494 287.181 -83.9361 285.274L-213.313 210.284C-220.255 206.471 -220.255 196.303 -213.313 191.854L112.969 1.83712C116.125 -0.0694052 119.911 -0.0694052 123.698 1.83712L475.224 206.471C482.166 210.92 482.166 221.088 475.224 224.901Z" fill="#EFF0F2"/>
<path d="M254.336 559.181L128.746 631.629C125.59 633.536 121.172 633.536 118.017 631.629L-249.287 417.463C-252.443 415.556 -254.336 411.743 -254.336 407.93V263.034C-254.336 254.772 -245.5 249.688 -238.558 254.137L254.336 540.751C261.278 544.564 261.278 554.733 254.336 559.181Z" fill="#EFF0F2"/>
<path d="M490.999 456.226V601.122C490.999 609.383 482.163 614.467 475.221 610.019L-11.9926 327.217C-18.9348 323.404 -18.9348 313.236 -11.9926 308.788L112.966 235.704C116.122 233.798 120.54 233.798 123.695 235.704L485.95 446.693C489.106 448.6 490.999 452.413 490.999 456.226Z" fill="#EFF0F2"/>
<path d="M449.978 672.935L123.696 862.952C120.541 864.859 116.754 864.859 112.967 862.952L-238.559 658.954C-245.501 655.141 -245.501 644.973 -238.559 640.524L-109.182 564.898C-106.027 562.992 -102.24 562.992 -98.4534 564.898L118.647 690.094C121.803 692 125.589 692 129.376 690.094L315.552 582.057C318.708 580.151 322.495 580.151 326.281 582.057L450.609 654.505C456.92 658.318 456.92 668.486 449.978 672.935Z" fill="#EFF0F2"/>
</svg>
