<svg width="109" height="50" viewBox="0 0 109 50" fill="none" xmlns="http://www.w3.org/2000/svg">
<path d="M26.1003 8.03137L21.4492 10.7369C21.3363 10.8051 21.1782 10.8051 21.0653 10.7369L13.5242 6.32619C13.4114 6.25799 13.2533 6.25799 13.1404 6.32619L6.47987 10.1913C6.36698 10.2595 6.23151 10.2595 6.09604 10.1913L1.46752 7.50845C1.21916 7.37203 1.21916 7.00826 1.46752 6.84911L13.1404 0.0511552C13.2533 -0.0170517 13.3888 -0.0170517 13.5242 0.0511552L26.1003 7.37203C26.3486 7.53118 26.3486 7.89495 26.1003 8.03137Z" fill="#8B0304"/>
<path d="M18.198 19.9904L13.7049 22.5823C13.592 22.6505 13.434 22.6505 13.3211 22.5823L0.180625 14.9204C0.0677344 14.8522 0 14.7157 0 14.5793V9.3956C0 9.10004 0.316094 8.91815 0.564453 9.0773L18.198 19.3311C18.4463 19.4675 18.4463 19.8313 18.198 19.9904Z" fill="#8B0304"/>
<path d="M26.6654 16.3071V21.4908C26.6654 21.7864 26.3493 21.9683 26.101 21.8091L8.67064 11.6918C8.42229 11.5554 8.42229 11.1916 8.67064 11.0325L13.1411 8.41785C13.254 8.34965 13.4121 8.34965 13.5249 8.41785L26.4848 15.9661C26.5977 16.0343 26.6654 16.1707 26.6654 16.3071Z" fill="#8B0304"/>
<path d="M25.1979 24.06L13.525 30.858C13.4121 30.9262 13.2767 30.9262 13.1412 30.858L0.565176 23.5598C0.316816 23.4234 0.316816 23.0596 0.565176 22.9005L5.1937 20.195C5.30659 20.1267 5.44205 20.1267 5.57752 20.195L13.3444 24.6739C13.4573 24.7421 13.5928 24.7421 13.7282 24.6739L20.3888 20.8088C20.5017 20.7406 20.6371 20.7406 20.7726 20.8088L25.2205 23.4007C25.4463 23.5371 25.4463 23.9009 25.1979 24.06Z" fill="#8B0304"/>
<path d="M55.8364 9.76349C55.7186 3.5614 50.9647 0.908936 45.0715 0.908936C38.5497 0.908936 34.3066 4.18551 34.3066 9.2174C34.3066 14.8734 38.6676 16.0046 43.225 17.2918C49.0003 18.9301 50.8862 19.3202 50.8862 21.5046C50.8862 23.806 48.9218 25.2102 45.7001 25.2102C41.9678 25.2102 39.4927 23.7279 39.3748 19.9833H33.2852C33.3637 26.2634 37.8426 29.891 45.4251 29.891C51.1219 29.891 56.9365 27.4726 56.9365 20.9195C56.9365 16.2776 53.7542 14.3663 48.7646 12.9621C43.1857 11.4018 40.1998 11.2067 40.1998 8.78832C40.1998 6.79897 41.8892 5.62877 44.7179 5.62877C47.9788 5.62877 49.7861 7.07202 50.0218 9.76349H55.8364Z" fill="#1C1C1C"/>
<path d="M64.1474 9.13938H58.8828V35.4711H64.4224V26.7705C65.9153 28.8378 68.1155 29.774 70.6692 29.774C75.9731 29.774 79.4697 25.6393 79.4697 19.3202C79.4697 12.845 75.8945 8.59329 70.4334 8.59329C67.8404 8.59329 65.6403 9.56846 64.1474 11.6358V9.13938ZM69.0584 13.0401C72.0443 13.0401 73.8908 15.3805 73.8908 19.3202C73.8908 23.1428 72.0835 25.4442 69.0977 25.4442C66.0332 25.4442 64.226 23.1428 64.226 19.2422C64.226 15.3415 66.0332 13.0401 69.0584 13.0401Z" fill="#1C1C1C"/>
<path d="M86.6547 1.49404H81.0758V29.2669H86.6547V1.49404Z" fill="#1C1C1C"/>
<path d="M94.543 1.49404H88.9641V6.17486H94.543V1.49404ZM94.543 9.13938H88.9641V29.2669H94.543V9.13938Z" fill="#1C1C1C"/>
<path d="M108.481 9.13938H104.356V3.05431H98.8163V9.13938H93.1331V12.884H98.8163V23.3379C98.8163 28.2527 100.309 29.501 105.102 29.501C106.36 29.501 106.949 29.462 108.481 29.3449V25.1322C107.813 25.2102 107.381 25.2102 106.792 25.2102C104.395 25.2102 104.356 24.313 104.356 22.3627V12.884H108.481V9.13938Z" fill="#1C1C1C"/>
<path d="M4.84359 47.5223V40.3928H7.33436V39.0908H0.910156V40.3928H3.40092V47.5223H4.84359Z" fill="#A6A6A6"/>
<path d="M10.7987 47.674C12.34 47.674 13.4374 46.4731 13.4374 44.4632C13.4374 42.4533 12.34 41.2651 10.7987 41.2651C10.0218 41.2651 9.33133 41.6443 8.88743 42.251V41.4167H7.59272V49.8482H8.88743V46.6754C9.36832 47.3327 10.0465 47.674 10.7987 47.674ZM10.4164 46.4984C9.81222 46.4984 9.17103 46.1192 8.88743 45.6767V43.2623C9.17103 42.8072 9.81222 42.4407 10.4164 42.4407C11.4398 42.4407 12.0934 43.2876 12.0934 44.4632C12.0934 45.6514 11.4398 46.4984 10.4164 46.4984Z" fill="#A6A6A6"/>
<path d="M17.4094 47.674C19.3206 47.674 20.4797 46.2203 20.4797 44.4632C20.4797 42.7188 19.3206 41.2651 17.4094 41.2651C15.5228 41.2651 14.3514 42.7188 14.3514 44.4632C14.3514 46.2203 15.5228 47.674 17.4094 47.674ZM17.4094 46.4984C16.3119 46.4984 15.6954 45.5503 15.6954 44.4632C15.6954 43.3887 16.3119 42.4407 17.4094 42.4407C18.5191 42.4407 19.1356 43.3887 19.1356 44.4632C19.1356 45.5503 18.5191 46.4984 17.4094 46.4984Z" fill="#A6A6A6"/>
<path d="M24.1695 47.5223V42.5797H25.8834V41.4167H21.1732V42.5797H22.8748V47.5223H24.1695Z" fill="#A6A6A6"/>
<path d="M26.6845 49.9114C26.8695 49.962 27.2271 49.9999 27.412 49.9999C28.3368 49.9873 29.052 49.6586 29.4589 48.6221L32.3319 41.4167H30.9386L29.1999 45.9927L27.4613 41.4167H26.0803L28.5218 47.5981L28.2258 48.2934C28.0532 48.6979 27.7819 48.8243 27.375 48.8243C27.2271 48.8243 27.0174 48.7864 26.8818 48.7232L26.6845 49.9114Z" fill="#A6A6A6"/>
<path d="M38.0771 47.5223V43.4772C38.0771 41.8339 36.918 41.2651 35.5986 41.2651C34.6492 41.2651 33.786 41.5811 33.0955 42.251L33.6257 43.1738C34.1436 42.6556 34.7232 42.4027 35.389 42.4027C36.2152 42.4027 36.7824 42.8325 36.7824 43.5404V44.4506C36.3508 43.9323 35.6603 43.6668 34.8588 43.6668C33.8847 43.6668 32.7873 44.2483 32.7873 45.6514C32.7873 47.004 33.8847 47.674 34.8588 47.674C35.6479 47.674 36.3385 47.3832 36.7824 46.865V47.5223H38.0771ZM35.3643 46.7638C34.6368 46.7638 34.0943 46.3341 34.0943 45.6767C34.0943 45.0068 34.6368 44.577 35.3643 44.577C35.9315 44.577 36.4864 44.7919 36.7824 45.209V46.1318C36.4864 46.5489 35.9315 46.7638 35.3643 46.7638Z" fill="#A6A6A6"/>
<path d="M42.9616 47.674C44.5029 47.674 45.6003 46.4731 45.6003 44.4632C45.6003 42.4533 44.5029 41.2651 42.9616 41.2651C42.1848 41.2651 41.4943 41.6443 41.0504 42.251V41.4167H39.7556V49.8482H41.0504V46.6754C41.5312 47.3327 42.2094 47.674 42.9616 47.674ZM42.5793 46.4984C41.9751 46.4984 41.334 46.1192 41.0504 45.6767V43.2623C41.334 42.8072 41.9751 42.4407 42.5793 42.4407C43.6028 42.4407 44.2563 43.2876 44.2563 44.4632C44.2563 45.6514 43.6028 46.4984 42.5793 46.4984Z" fill="#A6A6A6"/>
<path d="M48.1789 47.5223V44.9815H50.9163V47.5223H52.211V41.4167H50.9163V43.8185H48.1789V41.4167H46.8842V47.5223H48.1789Z" fill="#A6A6A6"/>
<path d="M58.8246 47.5223V43.4772C58.8246 41.8339 57.6655 41.2651 56.3462 41.2651C55.3967 41.2651 54.5336 41.5811 53.8431 42.251L54.3733 43.1738C54.8912 42.6556 55.4707 42.4027 56.1366 42.4027C56.9627 42.4027 57.5299 42.8325 57.5299 43.5404V44.4506C57.0983 43.9323 56.4078 43.6668 55.6063 43.6668C54.6322 43.6668 53.5348 44.2483 53.5348 45.6514C53.5348 47.004 54.6322 47.674 55.6063 47.674C56.3955 47.674 57.086 47.3832 57.5299 46.865V47.5223H58.8246ZM56.1119 46.7638C55.3844 46.7638 54.8419 46.3341 54.8419 45.6767C54.8419 45.0068 55.3844 44.577 56.1119 44.577C56.6791 44.577 57.234 44.7919 57.5299 45.209V46.1318C57.234 46.5489 56.6791 46.7638 56.1119 46.7638Z" fill="#A6A6A6"/>
<path d="M61.7733 47.5223L63.0803 45.3101H64.449V47.5223H65.7437V41.4167H62.3405C61.0581 41.4167 60.3676 42.3142 60.3676 43.3634C60.3676 44.4126 60.9841 45.07 61.7609 45.2469L60.2936 47.5223H61.7733ZM62.5008 44.1472C61.9829 44.1472 61.6869 43.8185 61.6869 43.3634C61.6869 42.9084 62.0075 42.5797 62.5008 42.5797H64.449V44.1472H62.5008Z" fill="#A6A6A6"/>
<path d="M75.9088 47.5223V41.4167H70.582V47.5223H71.8767V42.5797H74.6141V47.5223H75.9088Z" fill="#A6A6A6"/>
<path d="M76.9736 47.674C78.2806 47.674 79.0205 46.7512 79.2548 44.539L79.4644 42.5797H81.6222V47.5223H82.9169V41.4167H78.3176L77.9601 44.3874C77.7628 45.9927 77.4792 46.5869 76.9736 46.5869V47.674Z" fill="#A6A6A6"/>
<path d="M85.8437 47.5223L88.6304 43.3002V47.5223H89.9251V41.4167H88.6304L85.893 45.525V41.4167H84.5983V47.5223H85.8437Z" fill="#A6A6A6"/>
<path d="M93.9863 47.5223V42.5797H95.7002V41.4167H90.99V42.5797H92.6916V47.5223H93.9863Z" fill="#A6A6A6"/>
<path d="M102.334 47.5223L99.8059 44.1851L102.284 41.4167H100.681L98.055 44.3621V41.4167H96.7603V47.5223H98.055V45.879L98.8811 45.0068L100.706 47.5223H102.334Z" fill="#A6A6A6"/>
<path d="M108.183 47.5223V43.4772C108.183 41.8339 107.024 41.2651 105.704 41.2651C104.755 41.2651 103.892 41.5811 103.201 42.251L103.732 43.1738C104.249 42.6556 104.829 42.4027 105.495 42.4027C106.321 42.4027 106.888 42.8325 106.888 43.5404V44.4506C106.457 43.9323 105.766 43.6668 104.965 43.6668C103.99 43.6668 102.893 44.2483 102.893 45.6514C102.893 47.004 103.99 47.674 104.965 47.674C105.754 47.674 106.444 47.3832 106.888 46.865V47.5223H108.183ZM105.47 46.7638C104.743 46.7638 104.2 46.3341 104.2 45.6767C104.2 45.0068 104.743 44.577 105.47 44.577C106.037 44.577 106.592 44.7919 106.888 45.209V46.1318C106.592 46.5489 106.037 46.7638 105.47 46.7638Z" fill="#A6A6A6"/>
</svg>
