<svg width="49" height="49" viewBox="0 0 49 49" fill="none" xmlns="http://www.w3.org/2000/svg">
<circle cx="24.5008" cy="24.5" r="24.3367" fill="#8B0304"/>
<path d="M27.8362 16.7129C27.8362 17.788 27.6707 18.8566 27.3455 19.8812C27.2561 20.1937 27.3006 20.5506 27.5686 20.7737L29.5319 22.7375C28.238 25.2812 26.185 27.3338 23.6412 28.6282L21.6779 26.6644C21.4548 26.4413 21.0979 26.3522 20.7854 26.4413C19.7591 26.7985 18.6879 26.9769 17.5722 26.9769C17.0815 26.9769 16.6797 27.3785 16.6797 27.8694L16.6797 30.9933C16.6797 31.4842 17.0815 31.8858 17.5722 31.8858C25.9618 31.8858 32.7451 25.1025 32.7451 16.7129C32.7451 16.2222 32.3433 15.8204 31.8525 15.8204L28.7287 15.8204C28.238 15.8204 27.8362 16.2222 27.8362 16.7129Z" fill="white"/>
</svg>
