<svg width="49" height="49" viewBox="0 0 49 49" fill="none" xmlns="http://www.w3.org/2000/svg">
<rect x="0.5" y="0.5" width="48" height="48" stroke="#8B0304"/>
<rect width="13" height="13" transform="matrix(4.37114e-08 1 1 -4.37114e-08 12 24)" fill="#EFBFBF"/>
<rect width="13" height="13" transform="matrix(4.37114e-08 1 1 -4.37114e-08 0 12)" fill="#EFBFBF"/>
<rect width="13" height="13" transform="matrix(4.37114e-08 1 1 -4.37114e-08 12 0)" fill="#EFBFBF"/>
<rect width="13" height="13" transform="matrix(4.37114e-08 1 1 -4.37114e-08 36 24)" fill="#EFBFBF"/>
<rect width="13" height="13" transform="matrix(4.37114e-08 1 1 -4.37114e-08 24 36)" fill="#EFBFBF"/>
<rect width="13" height="13" transform="matrix(4.37114e-08 1 1 -4.37114e-08 24 12)" fill="#EFBFBF"/>
<rect width="13" height="13" transform="matrix(4.37114e-08 1 1 -4.37114e-08 36 0)" fill="#EFBFBF"/>
<rect x="0.5" y="0.5" width="12" height="12" stroke="#8B0304"/>
<line x1="3.5" y1="1" x2="3.5" y2="12" stroke="#8B0304"/>
<line x1="6.5" y1="1" x2="6.5" y2="12" stroke="#8B0304"/>
<line x1="9.5" y1="1" x2="9.5" y2="12" stroke="#8B0304"/>
<rect x="0.5" y="24.5" width="12" height="12" stroke="#8B0304"/>
<line x1="3.5" y1="25" x2="3.5" y2="36" stroke="#8B0304"/>
<line x1="6.5" y1="25" x2="6.5" y2="36" stroke="#8B0304"/>
<line x1="9.5" y1="25" x2="9.5" y2="36" stroke="#8B0304"/>
<rect x="-0.5" y="0.5" width="12" height="12" transform="matrix(-1 0 0 1 48 12)" stroke="#8B0304"/>
<line y1="-0.5" x2="11" y2="-0.5" transform="matrix(4.37114e-08 1 1 -4.37114e-08 46 13)" stroke="#8B0304"/>
<line y1="-0.5" x2="11" y2="-0.5" transform="matrix(4.37114e-08 1 1 -4.37114e-08 43 13)" stroke="#8B0304"/>
<line y1="-0.5" x2="11" y2="-0.5" transform="matrix(4.37114e-08 1 1 -4.37114e-08 40 13)" stroke="#8B0304"/>
<rect x="-0.5" y="0.5" width="12" height="12" transform="matrix(-1 0 0 1 48 36)" stroke="#8B0304"/>
<line y1="-0.5" x2="11" y2="-0.5" transform="matrix(4.37114e-08 1 1 -4.37114e-08 46 37)" stroke="#8B0304"/>
<line y1="-0.5" x2="11" y2="-0.5" transform="matrix(4.37114e-08 1 1 -4.37114e-08 43 37)" stroke="#8B0304"/>
<line y1="-0.5" x2="11" y2="-0.5" transform="matrix(4.37114e-08 1 1 -4.37114e-08 40 37)" stroke="#8B0304"/>
<rect x="24.5" y="0.5" width="12" height="12" stroke="#8B0304"/>
<line x1="27.5" y1="1" x2="27.5" y2="12" stroke="#8B0304"/>
<line x1="30.5" y1="1" x2="30.5" y2="12" stroke="#8B0304"/>
<line x1="33.5" y1="1" x2="33.5" y2="12" stroke="#8B0304"/>
<rect x="24.5" y="24.5" width="12" height="12" stroke="#8B0304"/>
<line x1="27.5" y1="25" x2="27.5" y2="36" stroke="#8B0304"/>
<line x1="30.5" y1="25" x2="30.5" y2="36" stroke="#8B0304"/>
<line x1="33.5" y1="25" x2="33.5" y2="36" stroke="#8B0304"/>
<rect x="-0.5" y="0.5" width="12" height="12" transform="matrix(-1 0 0 1 24 12)" stroke="#8B0304"/>
<line y1="-0.5" x2="11" y2="-0.5" transform="matrix(4.37114e-08 1 1 -4.37114e-08 22 13)" stroke="#8B0304"/>
<line y1="-0.5" x2="11" y2="-0.5" transform="matrix(4.37114e-08 1 1 -4.37114e-08 19 13)" stroke="#8B0304"/>
<line y1="-0.5" x2="11" y2="-0.5" transform="matrix(4.37114e-08 1 1 -4.37114e-08 16 13)" stroke="#8B0304"/>
<rect x="-0.5" y="0.5" width="12" height="12" transform="matrix(-1 0 0 1 24 36)" stroke="#8B0304"/>
<line y1="-0.5" x2="11" y2="-0.5" transform="matrix(4.37114e-08 1 1 -4.37114e-08 22 37)" stroke="#8B0304"/>
<line y1="-0.5" x2="11" y2="-0.5" transform="matrix(4.37114e-08 1 1 -4.37114e-08 19 37)" stroke="#8B0304"/>
<line y1="-0.5" x2="11" y2="-0.5" transform="matrix(4.37114e-08 1 1 -4.37114e-08 16 37)" stroke="#8B0304"/>
<rect x="24.5" y="0.5" width="12" height="12" transform="rotate(90 24.5 0.5)" stroke="#8B0304"/>
<line x1="24" y1="3.5" x2="13" y2="3.5" stroke="#8B0304"/>
<line x1="24" y1="6.5" x2="13" y2="6.5" stroke="#8B0304"/>
<line x1="24" y1="9.5" x2="13" y2="9.5" stroke="#8B0304"/>
<rect x="24.5" y="24.5" width="12" height="12" transform="rotate(90 24.5 24.5)" stroke="#8B0304"/>
<line x1="24" y1="27.5" x2="13" y2="27.5" stroke="#8B0304"/>
<line x1="24" y1="30.5" x2="13" y2="30.5" stroke="#8B0304"/>
<line x1="24" y1="33.5" x2="13" y2="33.5" stroke="#8B0304"/>
<rect x="0.5" y="0.5" width="12" height="12" transform="matrix(4.37114e-08 1 1 -4.37114e-08 24 12)" stroke="#8B0304"/>
<line y1="-0.5" x2="11" y2="-0.5" transform="matrix(1 -8.74228e-08 -8.74228e-08 -1 25 15)" stroke="#8B0304"/>
<line y1="-0.5" x2="11" y2="-0.5" transform="matrix(1 -8.74228e-08 -8.74228e-08 -1 25 18)" stroke="#8B0304"/>
<line y1="-0.5" x2="11" y2="-0.5" transform="matrix(1 -8.74228e-08 -8.74228e-08 -1 25 21)" stroke="#8B0304"/>
<rect x="0.5" y="0.5" width="12" height="12" transform="matrix(4.37114e-08 1 1 -4.37114e-08 24 36)" stroke="#8B0304"/>
<line y1="-0.5" x2="11" y2="-0.5" transform="matrix(1 -8.74228e-08 -8.74228e-08 -1 25 39)" stroke="#8B0304"/>
<line y1="-0.5" x2="11" y2="-0.5" transform="matrix(1 -8.74228e-08 -8.74228e-08 -1 25 42)" stroke="#8B0304"/>
<line y1="-0.5" x2="11" y2="-0.5" transform="matrix(1 -8.74228e-08 -8.74228e-08 -1 25 45)" stroke="#8B0304"/>
<rect x="48.5" y="0.5" width="12" height="12" transform="rotate(90 48.5 0.5)" stroke="#8B0304"/>
<line x1="48" y1="3.5" x2="37" y2="3.5" stroke="#8B0304"/>
<line x1="48" y1="6.5" x2="37" y2="6.5" stroke="#8B0304"/>
<line x1="48" y1="9.5" x2="37" y2="9.5" stroke="#8B0304"/>
<rect x="48.5" y="24.5" width="12" height="12" transform="rotate(90 48.5 24.5)" stroke="#8B0304"/>
<line x1="48" y1="27.5" x2="37" y2="27.5" stroke="#8B0304"/>
<line x1="48" y1="30.5" x2="37" y2="30.5" stroke="#8B0304"/>
<line x1="48" y1="33.5" x2="37" y2="33.5" stroke="#8B0304"/>
<rect x="0.5" y="0.5" width="12" height="12" transform="matrix(4.37114e-08 1 1 -4.37114e-08 2.18557e-08 12)" stroke="#8B0304"/>
<line y1="-0.5" x2="11" y2="-0.5" transform="matrix(1 -8.74228e-08 -8.74228e-08 -1 1 15)" stroke="#8B0304"/>
<line y1="-0.5" x2="11" y2="-0.5" transform="matrix(1 -8.74228e-08 -8.74228e-08 -1 1 18)" stroke="#8B0304"/>
<line y1="-0.5" x2="11" y2="-0.5" transform="matrix(1 -8.74228e-08 -8.74228e-08 -1 1 21)" stroke="#8B0304"/>
<rect width="13" height="13" transform="matrix(4.37114e-08 1 1 -4.37114e-08 0 36)" fill="#EFBFBF"/>
<rect x="0.5" y="0.5" width="12" height="12" transform="matrix(4.37114e-08 1 1 -4.37114e-08 2.18557e-08 36)" stroke="#8B0304"/>
<line y1="-0.5" x2="11" y2="-0.5" transform="matrix(1 -8.74228e-08 -8.74228e-08 -1 1 39)" stroke="#8B0304"/>
<line y1="-0.5" x2="11" y2="-0.5" transform="matrix(1 -8.74228e-08 -8.74228e-08 -1 1 42)" stroke="#8B0304"/>
<line y1="-0.5" x2="11" y2="-0.5" transform="matrix(1 -8.74228e-08 -8.74228e-08 -1 1 45)" stroke="#8B0304"/>
</svg>
